<?xml version="1.0" standalone="no"?>
<!DOCTYPE svg PUBLIC "-//W3C//DTD SVG 20010904//EN"
 "http://www.w3.org/TR/2001/REC-SVG-20010904/DTD/svg10.dtd">
<svg version="1.0" xmlns="http://www.w3.org/2000/svg"
 width="966.000000pt" height="322.000000pt" viewBox="0 0 966.000000 322.000000"
 preserveAspectRatio="xMidYMid meet">

<g transform="translate(0.000000,322.000000) scale(0.100000,-0.100000)"
fill="#000000" stroke="none">
<path d="M10 2946 c0 -257 1 -265 20 -271 11 -4 18 -11 14 -16 -3 -6 -12 -8
-20 -5 -12 5 -14 -80 -14 -559 l0 -565 47 0 c25 0 43 -3 39 -7 -9 -9 -14 -10
-56 -12 l-30 -1 0 -202 1 -203 32 -20 c19 -12 37 -34 43 -55 9 -25 17 -35 33
-35 26 0 29 -19 2 -23 -22 -4 -34 -35 -18 -51 8 -8 6 -11 -5 -11 -9 0 -18 -5
-20 -12 -3 -7 -18 -12 -34 -13 l-29 0 -3 -438 -2 -439 137 7 c76 3 172 6 213
5 41 0 524 -3 1073 -5 881 -5 1000 -3 1013 10 19 19 28 19 44 0 11 -14 201
-15 1684 -14 l1672 0 33 31 c19 18 36 27 40 21 12 -20 51 -33 98 -34 41 -1 44
-2 18 -8 -16 -4 764 -8 1734 -10 l1764 -2 23 22 c21 20 24 20 46 5 48 -34 48
-36 48 273 l0 290 -32 4 -33 4 33 1 32 2 0 755 c0 744 0 756 -19 745 -25 -13
-81 -13 -81 0 0 21 49 60 75 60 22 0 25 4 25 35 0 34 -20 49 -35 25 -17 -28
-41 -28 -68 -1 l-27 28 28 32 c27 32 28 32 65 16 l37 -15 0 185 0 185 -112 2
c-62 1 -126 3 -143 3 -35 2 -55 -4 -55 -15 0 -4 57 -9 127 -9 70 -1 129 -4
132 -6 2 -3 -63 -5 -146 -5 -148 0 -151 0 -204 -30 -147 -82 -233 -107 -263
-78 -8 9 -25 13 -39 11 -46 -9 -142 71 -162 135 -5 16 -2 22 9 22 21 0 21 46
1 53 -34 13 34 114 98 147 16 8 40 13 54 12 14 -1 32 3 40 9 12 11 70 8 168
-7 17 -2 105 -5 198 -5 92 -1 167 -5 167 -10 0 -5 -71 -10 -157 -11 -112 -2
-130 -3 -63 -5 116 -5 148 -23 39 -23 -84 0 -114 -11 -80 -29 23 -13 51 -70
51 -107 0 -13 1 -25 3 -26 1 -1 77 -4 170 -7 l167 -6 0 268 -1 267 -34 0 c-25
0 -42 -9 -69 -36 -31 -31 -41 -36 -69 -30 -17 3 -44 20 -60 36 l-27 30 -1085
0 c-762 -1 -1084 -4 -1079 -11 4 -7 0 -7 -14 0 -15 8 -376 11 -1271 11 l-1250
0 4 -30 c4 -27 2 -30 -26 -30 -18 0 -40 10 -57 26 l-27 25 28 -12 c15 -7 27
-16 27 -21 0 -4 11 -8 25 -8 17 0 23 4 19 14 -3 8 -13 12 -22 10 -13 -5 -13
-2 2 10 18 15 -19 16 -435 16 -435 0 -455 -1 -471 -19 -9 -11 -14 -22 -11 -25
4 -3 2 -6 -3 -7 -5 0 -21 -2 -37 -4 -15 -2 -25 0 -22 6 4 5 12 9 19 9 7 0 21
9 31 20 18 20 17 20 -49 20 -63 0 -70 -2 -96 -30 -22 -24 -36 -30 -68 -30 -32
0 -45 6 -65 30 l-26 30 -878 0 c-483 0 -975 -3 -1095 -7 -214 -6 -216 -6 -227
-30 -8 -18 -18 -23 -48 -22 -33 0 -36 2 -20 12 56 36 55 38 -16 34 -54 -4 -74
-10 -93 -28 -36 -34 -90 -30 -126 10 l-28 31 -445 0 -445 0 0 -264z m2592 232
c-7 -7 -12 -8 -12 -2 0 6 3 14 7 17 3 4 9 5 12 2 2 -3 -1 -11 -7 -17z m2128 1
c-7 -11 -14 -18 -17 -15 -3 3 0 12 7 21 18 21 23 19 10 -6z m173 4 c-8 -23
-23 -32 -39 -26 -10 4 -8 10 9 24 28 23 38 24 30 2z m2261 -20 c8 -19 2 -16
-25 13 -23 25 -23 26 -2 13 13 -7 25 -19 27 -26z m33 11 c-3 -3 -12 -4 -19 -1
-8 3 -5 6 6 6 11 1 17 -2 13 -5z m223 -4 c0 -5 -10 -10 -22 -10 -19 0 -20 2
-8 10 19 13 30 13 30 0z m-6300 -65 c21 -12 98 -14 433 -15 264 0 407 -4 407
-10 0 -7 -142 -10 -405 -10 -317 0 -405 -3 -406 -12 0 -7 -14 -24 -30 -37
l-31 -24 -31 31 -31 32 29 30 c33 34 32 34 65 15z m8495 -15 l29 -30 -32 -33
-32 -32 -32 32 -32 32 30 30 c16 17 32 31 35 31 3 0 18 -14 34 -30z m-7129 5
c9 -8 11 -15 6 -15 -5 0 -15 7 -22 15 -7 8 -9 15 -6 15 4 0 14 -7 22 -15z
m1164 -10 l24 -25 -29 -30 -29 -30 -30 31 -31 31 30 24 c37 29 36 30 65 -1z
m1120 10 c4 2 15 -4 25 -15 16 -18 16 -20 -3 -45 -14 -17 -22 -21 -25 -13 -3
8 -6 5 -6 -6 -1 -16 -5 -15 -26 10 -14 16 -25 32 -25 36 0 14 22 19 35 8 9 -8
15 -8 15 -2 0 6 -5 12 -12 14 -7 3 -8 9 -3 18 6 10 10 11 13 2 2 -7 7 -10 12
-7z m2540 -5 c10 -10 15 -22 10 -25 -5 -3 -13 3 -19 12 -5 10 -13 14 -17 10
-5 -5 -2 -12 6 -18 13 -8 13 -10 0 -20 -11 -8 -8 -9 15 -4 l30 7 -24 -26 -23
-25 -25 30 -26 30 23 24 c28 30 25 30 50 5z m-4865 -48 c-3 -3 -11 0 -18 7 -9
10 -8 11 6 5 10 -3 15 -9 12 -12z m-1085 -2 c0 -6 -40 -10 -96 -10 -52 0 -93
3 -91 8 8 11 187 13 187 2z m-800 -127 c0 -7 4 -13 8 -13 5 0 15 -15 24 -33 9
-19 31 -41 50 -51 18 -9 51 -27 73 -41 22 -14 51 -30 65 -36 l25 -11 -30 -16
-30 -16 50 -9 c54 -10 547 -15 684 -7 62 4 85 2 88 -7 4 -10 -86 -13 -424 -13
-235 -1 -447 -5 -471 -9 -160 -31 62 -59 338 -42 85 5 157 7 159 5 14 -13 -33
-16 -266 -19 -142 -2 -266 -4 -275 -4 -10 -1 -18 -5 -18 -11 0 -6 69 -10 186
-10 135 0 183 -3 178 -11 -5 -8 -45 -10 -139 -5 -73 4 -165 4 -204 0 -64 -6
-74 -10 -82 -31 -5 -13 -20 -40 -33 -59 l-24 -35 -31 55 c-17 31 -31 59 -31
63 -1 5 -13 25 -28 46 -19 27 -52 51 -112 81 -46 24 -85 47 -87 52 -2 5 7 14
20 20 152 73 152 72 214 180 l57 102 33 -51 c18 -28 33 -57 33 -64z m1920 108
c0 -17 -18 -21 -24 -6 -3 9 0 15 9 15 8 0 15 -4 15 -9z m2880 -75 c0 -9 3 -16
8 -16 4 0 20 -22 35 -50 24 -43 39 -55 117 -97 50 -26 90 -51 90 -55 0 -4 -9
-10 -20 -13 -39 -12 -19 -23 58 -32 84 -9 517 -11 651 -3 62 4 85 2 88 -7 4
-10 -86 -13 -427 -13 -410 0 -520 -6 -520 -30 0 -12 28 -20 71 -20 27 0 38 -4
33 -11 -4 -7 -22 -9 -47 -6 -42 6 -67 1 -67 -14 0 -5 83 -9 186 -9 108 0 183
-4 180 -9 -4 -5 -84 -8 -184 -6 -97 2 -189 1 -204 -2 -20 -4 -34 -19 -54 -60
-15 -30 -31 -56 -34 -58 -4 -2 -26 30 -50 73 -24 42 -49 87 -56 99 -7 12 -54
43 -104 69 -84 45 -107 63 -77 64 6 1 50 22 95 48 81 45 85 50 128 127 24 44
47 88 50 98 6 15 10 13 30 -17 13 -19 24 -42 24 -50z m1330 -10 c0 -3 -4 -8
-10 -11 -5 -3 -10 -1 -10 4 0 6 5 11 10 11 6 0 10 -2 10 -4z m129 -26 c73 -24
138 -64 171 -104 20 -25 25 -41 25 -88 -1 -54 1 -59 24 -65 13 -3 155 -3 315
1 197 5 288 4 281 -3 -6 -6 -125 -11 -312 -13 -279 -3 -304 -4 -320 -22 -18
-18 -13 -18 165 -14 101 3 185 1 188 -4 6 -9 -12 -11 -121 -8 -104 2 -294 -17
-370 -37 -104 -27 -145 -31 -160 -17 -7 7 -29 13 -48 12 -20 -1 -49 8 -71 22
-54 33 -110 130 -76 130 13 0 13 43 -1 57 -15 15 -3 48 33 88 36 42 80 65 124
65 18 0 36 5 39 10 10 15 50 12 114 -10z m2156 10 c-3 -5 -10 -10 -16 -10 -5
0 -9 5 -9 10 0 6 7 10 16 10 8 0 12 -4 9 -10z m-7035 -30 c0 -5 -2 -10 -4 -10
-3 0 -8 5 -11 10 -3 6 -1 10 4 10 6 0 11 -4 11 -10z m46 -12 c4 -7 4 -10 -1
-6 -4 4 -15 2 -24 -5 -14 -11 -14 -10 -2 6 16 20 18 21 27 5z m84 -8 c0 -5 -2
-10 -4 -10 -3 0 -8 5 -11 10 -3 6 -1 10 4 10 6 0 11 -4 11 -10z m-220 -20 c0
-5 -5 -10 -11 -10 -5 0 -7 5 -4 10 3 6 8 10 11 10 2 0 4 -4 4 -10z m95 0 c3
-5 1 -10 -4 -10 -6 0 -11 5 -11 10 0 6 2 10 4 10 3 0 8 -4 11 -10z m167 -7 c9
-10 14 -26 13 -35 -2 -10 3 -18 11 -18 8 0 11 -6 8 -15 -9 -22 -34 7 -29 34 2
13 -4 26 -18 36 -12 8 -17 15 -11 15 6 0 18 -8 26 -17z m-304 -11 c2 -7 -1
-12 -8 -12 -6 0 -9 4 -6 9 4 5 1 12 -4 14 -6 3 -5 4 2 3 6 -1 14 -8 16 -14z
m72 14 c0 -3 -4 -8 -10 -11 -5 -3 -10 -1 -10 4 0 6 5 11 10 11 6 0 10 -2 10
-4z m128 -8 c-6 -18 -25 -21 -25 -3 0 8 7 15 15 15 7 0 12 -5 10 -12z m-253
-29 c-6 -19 -4 -21 14 -16 14 3 21 0 21 -9 0 -23 -45 0 -46 25 -1 11 3 21 8
21 5 0 6 -10 3 -21z m315 11 c0 -5 -4 -10 -10 -10 -5 0 -10 5 -10 10 0 6 5 10
10 10 6 0 10 -4 10 -10z m24 -39 c1 -16 -2 -27 -7 -24 -4 2 -6 17 -5 33 3 36
11 30 12 -9z m-234 8 c0 -6 -4 -7 -10 -4 -5 3 -10 11 -10 16 0 6 5 7 10 4 6
-3 10 -11 10 -16z m210 -5 c0 -3 -5 -11 -12 -18 -9 -9 -16 -10 -24 -2 -8 7 -8
14 0 22 10 10 36 9 36 -2z m-114 -40 c1 -25 -2 -32 -9 -25 -6 6 -19 11 -28 11
-10 0 -21 5 -25 12 -5 8 2 9 25 5 20 -4 30 -3 26 3 -5 8 1 30 8 30 1 0 3 -16
3 -36z m234 9 c0 -29 -12 -24 -17 7 -2 11 2 20 7 20 6 0 10 -12 10 -27z m-327
10 c-7 -2 -19 -2 -25 0 -7 3 -2 5 12 5 14 0 19 -2 13 -5z m-23 -29 c0 -2 -9
-4 -20 -4 -11 0 -20 4 -20 9 0 5 9 7 20 4 11 -3 20 -7 20 -9z m275 6 c-3 -5
-12 -10 -18 -10 -7 0 -6 4 3 10 19 12 23 12 15 0z m-118 -6 c-3 -3 -12 -4 -19
-1 -8 3 -5 6 6 6 11 1 17 -2 13 -5z m53 2 c0 -3 -4 -8 -10 -11 -5 -3 -10 -1
-10 4 0 6 5 11 10 11 6 0 10 -2 10 -4z m-330 -27 c0 -5 -4 -9 -8 -9 -5 0 -9 7
-9 15 0 8 4 12 9 9 4 -3 8 -9 8 -15z m7080 12 c0 -6 -4 -13 -10 -16 -5 -3 -10
1 -10 9 0 9 5 16 10 16 6 0 10 -4 10 -9z m-6921 -40 c-14 -19 -18 -36 -14 -52
5 -21 11 -25 36 -21 17 3 29 0 29 -7 0 -6 5 -11 11 -11 6 0 8 7 5 16 -3 8 -2
12 3 9 5 -3 12 -1 16 5 3 5 2 10 -2 10 -5 0 -9 9 -10 20 -1 11 2 20 8 20 5 0
9 -4 9 -8 0 -5 9 -18 20 -30 l21 -22 -21 0 c-25 0 -26 -21 -1 -37 15 -10 22
-9 31 2 9 10 7 14 -7 18 -12 4 -9 5 7 4 14 -1 41 2 60 7 24 5 44 3 63 -7 l29
-15 -35 0 c-19 0 -43 -4 -53 -10 -27 -14 -80 -22 -89 -14 -3 4 -33 12 -65 18
-48 8 -60 8 -64 -3 -4 -9 -1 -11 6 -7 7 4 8 3 4 -4 -14 -23 -116 -5 -116 20 0
5 10 2 22 -6 32 -23 57 -20 69 8 12 25 -2 66 -22 66 -6 0 -7 5 -4 10 3 6 1 10
-5 10 -7 0 -6 6 3 14 8 9 24 12 36 9 15 -4 21 -1 21 11 0 10 4 14 10 11 6 -4
1 -17 -11 -34z m245 30 c4 -5 -4 -7 -16 -3 -13 3 -19 1 -15 -6 13 -20 -3 -39
-29 -34 -13 2 -24 8 -24 12 0 5 9 6 20 3 15 -4 20 0 20 16 0 22 33 31 44 12z
m63 -22 c-11 -29 -12 -29 -15 -9 -3 18 10 38 25 40 1 0 -4 -14 -10 -31z m-149
13 c-12 -2 -18 -13 -18 -33 0 -32 -11 -37 -30 -14 -10 12 -10 18 -1 29 10 11
8 15 -6 19 -10 2 2 4 27 4 25 0 37 -2 28 -5z m-283 -12 c-3 -5 -12 -10 -18
-10 -7 0 -6 4 3 10 19 12 23 12 15 0z m40 -19 c-3 -17 -2 -32 5 -36 5 -3 7
-11 4 -17 -4 -6 0 -14 7 -19 7 -4 10 -11 6 -15 -4 -4 -14 1 -21 12 -8 10 -18
16 -21 12 -4 -4 -14 0 -22 8 -9 8 -18 12 -21 9 -4 -3 0 -10 8 -15 8 -6 11 -10
5 -10 -13 0 -55 50 -55 67 0 7 5 13 10 13 6 0 10 -8 8 -17 -2 -11 3 -18 12
-18 8 0 14 6 12 13 -1 8 2 11 8 7 6 -3 8 -10 5 -14 -2 -5 6 -13 19 -19 22 -10
24 -9 22 21 0 18 -5 35 -11 39 -6 4 -2 8 8 8 15 0 17 -5 12 -29z m325 -11 c0
-5 -2 -10 -4 -10 -2 0 -12 -3 -22 -7 -16 -6 -17 -5 -4 10 17 19 30 22 30 7z
m100 -17 c0 -3 -6 -3 -14 0 -8 3 -17 1 -19 -6 -2 -7 -8 -8 -13 -4 -11 11 15
27 33 20 7 -3 13 -7 13 -10z m570 7 c0 -6 -61 -9 -167 -8 l-168 2 160 6 c88 3
163 7 168 8 4 1 7 -2 7 -8z m-635 -10 c3 -5 -1 -10 -9 -10 -9 0 -16 5 -16 10
0 6 4 10 9 10 6 0 13 -4 16 -10z m-305 -33 c0 -5 -4 -5 -10 -2 -5 3 -10 14
-10 23 0 15 2 15 10 2 5 -8 10 -19 10 -23z m220 25 c0 -5 -7 -9 -15 -9 -8 0
-15 4 -15 9 0 4 7 8 15 8 8 0 15 -4 15 -8z m3914 -21 c7 -10 -180 -20 -204
-11 -8 3 30 8 85 11 55 3 103 6 107 7 4 1 9 -2 12 -7z m-3536 -18 c-16 -2 -40
-2 -55 0 -16 2 -3 4 27 4 30 0 43 -2 28 -4z m3165 0 c-7 -2 -19 -2 -25 0 -7 3
-2 5 12 5 14 0 19 -2 13 -5z m-3687 -39 c-5 -13 0 -14 27 -9 24 5 28 4 17 -4
-19 -14 -80 -14 -80 -1 0 6 7 10 15 10 8 0 15 5 15 10 0 6 3 10 6 10 3 0 3 -7
0 -16z m4764 -28 c0 -11 -19 -15 -25 -6 -3 5 1 10 9 10 9 0 16 -2 16 -4z
m2290 -16 c0 -5 -7 -10 -15 -10 -8 0 -15 5 -15 10 0 6 7 10 15 10 8 0 15 -4
15 -10z m-7876 -201 c-3 -5 3 -6 12 -2 13 5 16 3 11 -10 -4 -12 -2 -14 11 -10
9 3 2 -9 -16 -27 l-33 -33 -29 28 -30 29 27 28 c20 21 30 25 40 17 7 -6 10
-15 7 -20z m4831 9 c31 -27 31 -39 0 -68 l-25 -24 -30 29 -31 29 28 28 c16 15
29 27 30 27 2 1 14 -9 28 -21z m2525 7 c7 -8 28 -15 46 -15 19 0 34 -4 34 -10
0 -5 28 -11 63 -12 57 -1 55 -2 -25 -7 -77 -6 -91 -10 -115 -33 l-29 -27 -27
28 c-15 16 -27 32 -27 35 0 7 53 56 61 56 4 0 12 -7 19 -15z m-4822 -4 c9 -6
30 -13 46 -16 l29 -6 -34 -23 c-19 -13 -38 -21 -43 -18 -5 3 -6 0 -2 -6 15
-25 -18 -22 -45 4 l-29 28 22 23 c24 26 30 27 56 14z m-1148 -16 c10 -12 51
-15 234 -17 l221 -2 -205 -6 c-193 -5 -206 -6 -214 -25 -5 -11 -20 -29 -33
-39 -25 -18 -25 -18 -56 13 l-31 31 29 30 c33 34 38 36 55 15z m2614 -13 c154
2 269 1 256 -3 -14 -4 -140 -7 -281 -8 -141 -1 -259 -4 -262 -8 -4 -3 1 -12
11 -19 16 -12 15 -13 -4 -14 -12 0 -27 -7 -34 -15 -17 -21 -42 -19 -63 5 -23
27 -22 40 6 66 20 19 24 20 57 6 28 -12 86 -13 314 -10z m3746 18 c0 -6 -38
-9 -97 -8 l-98 2 85 6 c47 3 91 7 98 8 6 1 12 -2 12 -8z m-4887 -7 c-13 -2
-33 -2 -45 0 -13 2 -3 4 22 4 25 0 35 -2 23 -4z m1030 -60 c-7 -2 -21 -2 -30
0 -10 3 -4 5 12 5 17 0 24 -2 18 -5z m-3790 -61 c32 -10 58 -23 58 -28 0 -5 8
-8 17 -6 10 1 5 -5 -11 -15 -33 -21 -30 -37 6 -41 33 -4 36 -22 3 -22 -28 0
-45 -29 -18 -31 15 -1 15 -2 1 -6 -9 -2 -21 -15 -27 -28 -8 -17 -20 -25 -36
-25 -22 0 -24 -3 -20 -32 5 -29 0 -39 -40 -78 l-46 -44 -31 31 -31 31 21 21
c11 11 21 27 21 34 0 24 38 50 65 45 14 -3 25 -1 25 3 0 5 5 9 12 9 16 0 58
41 58 57 0 20 -126 18 -134 -2 -4 -12 5 -15 52 -16 l57 -2 -63 -8 c-45 -6 -72
-15 -93 -33 -54 -45 -111 -26 -138 47 -7 17 -18 27 -31 27 -11 0 -20 5 -20 10
0 6 9 10 20 10 14 0 25 12 36 39 12 31 22 40 45 43 38 6 37 -3 -3 -22 -17 -8
-35 -25 -39 -37 -8 -22 -6 -23 55 -23 59 0 64 2 70 24 6 26 69 86 89 86 7 0
38 -8 70 -18z m2505 7 c22 -7 37 -24 52 -55 17 -34 27 -44 46 -44 33 0 30 -18
-3 -22 -20 -2 -29 -9 -31 -25 -3 -22 0 -22 110 -26 l113 -3 -116 -2 c-93 -2
-118 -5 -123 -17 -3 -10 -19 -15 -43 -15 -34 0 -36 1 -17 15 33 25 -83 20
-121 -5 -16 -11 -42 -20 -57 -20 -30 0 -75 41 -84 78 -4 13 -14 22 -25 22 -10
0 -19 5 -19 10 0 6 9 10 20 10 14 0 22 11 31 40 11 37 15 40 48 39 33 0 34 -1
12 -10 -27 -10 -50 -37 -51 -56 0 -9 17 -13 55 -13 49 0 56 3 69 28 21 40 65
77 97 81 3 1 20 -4 37 -10z m2313 -5 c29 -10 49 -22 49 -31 0 -10 7 -13 23 -8
19 5 18 3 -6 -12 -33 -21 -30 -37 6 -41 30 -4 27 -22 -3 -22 -27 0 -35 -30 -7
-31 l22 -2 -22 -4 c-14 -3 -25 -14 -29 -29 -5 -20 -12 -24 -46 -24 -23 0 -37
4 -33 10 3 6 11 10 17 10 17 0 58 41 58 57 0 19 -131 14 -138 -4 -2 -9 13 -13
55 -14 l58 -2 -63 -8 c-45 -6 -72 -15 -93 -33 -51 -43 -98 -32 -130 30 -13 24
-32 45 -44 47 -20 4 -20 4 0 11 11 4 28 25 37 47 14 34 21 39 49 39 l32 0 -34
-23 c-19 -12 -35 -30 -37 -40 -3 -14 5 -17 51 -17 52 0 57 2 77 35 24 39 66
75 87 75 8 0 36 -7 64 -16z m2532 -4 c14 -11 31 -36 37 -55 9 -27 17 -35 36
-35 13 0 24 -4 24 -10 0 -5 -11 -10 -25 -10 -14 0 -25 -4 -25 -9 0 -5 -3 -16
-6 -25 -5 -14 4 -16 62 -18 l69 -2 -68 -3 c-48 -3 -70 -8 -74 -18 -3 -10 -20
-15 -52 -15 -45 1 -45 1 -21 15 24 14 24 14 -22 15 -61 0 -120 -27 -109 -49
10 -19 -1 -52 -23 -70 -39 -32 -105 26 -78 69 9 16 7 28 -11 64 -13 27 -29 45
-39 46 -24 0 -23 20 0 20 12 0 23 14 32 41 13 36 20 42 48 45 40 5 40 -5 -1
-31 -17 -11 -33 -28 -35 -38 -3 -14 5 -17 50 -17 51 0 54 2 83 45 45 67 99 83
148 45z m-7155 -7 c-10 -2 -28 -2 -40 0 -13 2 -5 4 17 4 22 1 32 -1 23 -4z
m1201 -33 c12 -17 24 -20 97 -20 49 0 84 -4 84 -10 0 -6 -34 -10 -81 -10 -60
0 -80 -3 -77 -12 3 -7 17 -14 31 -16 35 -4 35 -30 0 -34 -22 -2 -29 -10 -36
-40 -8 -33 -12 -36 -48 -40 -47 -4 -49 1 -10 24 16 9 34 26 40 37 11 20 10 21
-53 21 -62 0 -66 -1 -81 -29 -34 -67 -106 -82 -156 -32 -16 16 -29 37 -29 45
0 9 -8 16 -20 16 -11 0 -20 7 -20 15 0 8 9 15 19 15 13 0 21 9 26 30 9 39 30
60 61 60 28 0 32 -17 7 -28 -13 -5 -4 -9 27 -12 39 -5 49 -2 75 21 17 15 39
29 50 31 31 6 79 -10 94 -32z m3629 33 c-10 -2 -28 -2 -40 0 -13 2 -5 4 17 4
22 1 32 -1 23 -4z m-1359 -19 c13 -9 29 -32 37 -50 11 -26 20 -34 39 -34 16 0
25 -6 25 -15 0 -10 -10 -15 -30 -15 -25 0 -30 -4 -30 -24 0 -46 -10 -56 -54
-55 -40 1 -40 1 -15 12 77 35 78 64 3 69 -58 3 -94 -11 -94 -36 0 -20 -33 -45
-67 -52 -41 -8 -88 18 -101 56 -6 16 -18 30 -26 30 -25 0 -29 20 -5 28 13 5
27 23 33 43 10 31 15 34 51 36 36 2 37 1 15 -8 -33 -13 -60 -39 -60 -56 0 -9
15 -13 53 -13 51 0 55 2 78 37 39 61 100 80 148 47z m-3351 -1 c-15 -2 -42 -2
-60 0 -18 2 -6 4 27 4 33 0 48 -2 33 -4z m4819 0 c-20 -2 -52 -2 -70 0 -17 2
0 4 38 4 39 0 53 -2 32 -4z m3143 -11 c-8 -4 -28 -15 -43 -26 -32 -22 -43 -17
-27 13 8 16 20 21 48 20 21 0 31 -3 22 -7z m-8153 -18 c-3 -3 -12 -4 -19 -1
-8 3 -5 6 6 6 11 1 17 -2 13 -5z m6040 -70 c-3 -3 -12 -4 -19 -1 -8 3 -5 6 6
6 11 1 17 -2 13 -5z m-5732 -14 c4 -7 -57 -9 -177 -8 l-183 2 175 6 c96 3 176
7 177 8 1 1 5 -2 8 -8z m4820 0 c4 -7 -55 -9 -172 -8 l-178 2 155 6 c85 3 163
7 172 8 9 1 20 -2 23 -8z m825 -34 c0 -3 -4 -8 -10 -11 -5 -3 -10 -1 -10 4 0
6 5 11 10 11 6 0 10 -2 10 -4z m149 -8 c-1 -7 1 -25 5 -41 12 -39 -15 -77 -54
-77 -30 0 -50 22 -50 56 0 25 30 54 56 54 13 0 26 5 29 10 9 14 16 13 14 -2z
m-6916 -66 l37 -25 59 42 c92 64 93 64 89 -4 -3 -56 -4 -59 -43 -82 -22 -13
-46 -26 -52 -29 -20 -9 -15 -27 4 -20 28 11 175 -5 170 -18 -3 -8 35 -10 135
-8 100 3 138 1 134 -7 -4 -6 -33 -11 -64 -11 -95 0 -192 -12 -185 -23 4 -6
143 -7 394 -3 232 5 389 4 389 -2 0 -10 -397 -22 -727 -22 -117 0 -213 -2
-213 -5 0 -2 11 -21 25 -41 14 -20 25 -49 25 -63 0 -15 6 -36 14 -47 13 -18
30 -19 265 -22 150 -2 251 -7 251 -12 0 -6 -98 -10 -249 -10 -156 0 -252 -4
-256 -10 -4 -6 26 -10 84 -10 132 0 122 -18 -12 -22 -96 -3 -116 -6 -139 -24
l-27 -21 32 -24 c31 -23 40 -24 220 -27 108 -2 187 -7 187 -13 0 -5 -73 -9
-177 -9 -141 0 -174 -3 -165 -12 8 -8 42 -13 92 -13 111 0 101 -14 -12 -17
l-93 -3 -5 -70 -5 -70 -149 -3 -149 -3 5 83 c4 82 20 128 54 162 14 15 13 20
-17 57 -30 38 -32 47 -37 135 l-5 94 47 0 46 0 0 -69 c0 -73 10 -93 51 -106
29 -9 74 25 74 55 0 13 -6 25 -13 28 -9 3 -12 -3 -10 -14 2 -14 -4 -20 -26
-22 -38 -5 -47 11 -44 83 l2 60 -62 3 -62 3 0 44 0 45 38 1 c20 1 47 0 60 -1
37 -3 25 14 -35 46 l-58 31 -3 58 -3 57 38 -22 c21 -13 55 -34 76 -48z m2441
60 c3 -5 32 -25 65 -46 l60 -37 55 36 c30 19 57 39 61 45 15 25 33 8 33 -32 2
-65 -4 -75 -63 -104 -30 -15 -52 -31 -49 -36 3 -5 27 -8 54 -7 28 1 56 -3 65
-11 13 -11 73 -12 308 -6 188 4 288 3 282 -3 -6 -6 -126 -11 -288 -12 -171 -1
-280 -6 -284 -12 -4 -7 68 -8 210 -5 120 3 217 2 217 -1 0 -4 -8 -8 -17 -8
-217 1 -405 -5 -397 -13 5 -5 61 -11 124 -13 92 -2 82 -3 -48 -4 -90 0 -166
-4 -170 -7 -3 -4 2 -14 11 -23 14 -14 40 -16 191 -14 120 2 176 -1 176 -8 0
-7 -50 -11 -150 -11 -93 0 -150 -4 -150 -10 0 -6 41 -10 102 -10 56 0 98 -3
94 -7 -4 -4 -47 -6 -95 -4 -56 2 -91 -1 -96 -8 -4 -8 48 -11 174 -11 114 0
181 -4 181 -10 0 -6 -70 -10 -190 -10 l-190 0 -5 -25 c-3 -14 -7 -37 -11 -51
-3 -15 -17 -39 -32 -54 l-28 -27 29 -29 c28 -28 32 -29 155 -35 121 -5 123 -5
35 -7 -96 -2 -123 -7 -123 -24 0 -7 22 -9 60 -5 33 3 60 1 60 -4 0 -5 -27 -9
-60 -9 -33 0 -60 -4 -60 -9 0 -16 75 -21 332 -21 160 0 259 -4 263 -10 4 -7
-49 -10 -153 -10 -224 0 -430 -11 -448 -24 -8 -6 -16 -25 -17 -41 l-2 -30
-145 0 -145 0 -3 40 c-7 80 7 141 41 180 l32 37 -31 33 c-36 38 -44 70 -44
166 l0 69 45 0 44 0 3 -77 c3 -75 4 -78 32 -92 42 -20 80 2 84 47 2 18 -1 32
-7 32 -6 0 -11 -9 -11 -21 0 -17 -5 -20 -32 -17 l-33 3 -3 73 -3 72 -60 0 -60
0 3 47 3 47 58 -3 c31 -1 57 1 57 6 0 4 -21 19 -46 33 -67 35 -74 45 -74 101
0 44 11 62 24 41z m2346 -38 l70 -46 69 46 c38 25 72 46 75 46 4 0 6 -26 4
-57 l-3 -58 -52 -28 c-29 -16 -53 -31 -53 -35 0 -4 20 -6 45 -4 25 2 53 1 63
-3 9 -4 32 -7 50 -6 17 2 32 -2 32 -8 0 -5 -15 -11 -32 -13 -18 -2 43 -2 136
1 126 3 167 1 162 -7 -4 -7 -32 -12 -64 -12 -92 0 -192 -12 -192 -23 0 -7 130
-8 395 -3 226 4 395 3 395 -2 0 -10 -421 -22 -742 -22 -182 0 -220 -5 -188
-25 17 -10 50 -82 50 -108 0 -42 32 -47 285 -47 150 0 235 -4 235 -10 0 -6
-90 -10 -249 -10 -156 0 -252 -4 -256 -10 -7 -11 13 -12 112 -10 33 1 64 -3
67 -8 4 -6 -39 -11 -109 -13 -103 -4 -117 -6 -137 -26 -22 -22 -22 -23 -3 -38
39 -31 69 -35 241 -35 109 0 174 -4 174 -10 0 -6 -65 -10 -175 -10 -173 0
-229 -11 -117 -24 31 -4 72 -4 90 0 20 4 32 3 32 -4 0 -7 -34 -12 -92 -14
l-93 -3 -3 -73 -3 -73 -146 3 -146 3 1 81 c1 92 9 119 46 153 25 24 25 24 6
38 -36 25 -52 71 -52 147 0 112 -3 106 42 106 l40 0 0 -61 c0 -33 5 -69 11
-80 12 -24 55 -42 79 -34 20 7 45 59 35 74 -11 18 -25 12 -25 -10 0 -17 -5
-20 -32 -17 l-33 3 -1 60 c-1 33 -2 66 -3 73 -1 8 -20 12 -62 12 l-60 0 3 48
3 47 58 0 c31 0 57 2 57 5 0 3 -24 18 -54 34 -42 23 -55 36 -60 59 -7 37 -8
87 -1 87 3 0 37 -21 75 -46z m1870 31 c0 -2 -9 -3 -19 -2 -11 0 -18 5 -15 9 4
6 34 0 34 -7z m-6976 -1 c27 -10 37 -40 24 -69 -25 -54 -98 -35 -98 26 0 38
35 58 74 43z m7051 -14 c-3 -5 -16 -10 -28 -9 -20 1 -20 2 3 9 14 4 26 8 28 9
2 1 0 -3 -3 -9z m-68 -6 c-3 -3 -12 -4 -19 -1 -8 3 -5 6 6 6 11 1 17 -2 13 -5z
m-1239 -107 l-32 -27 -30 29 -30 30 30 28 29 29 33 -31 33 -30 -33 -28z m2532
-1 l-30 -31 -32 32 -31 31 29 31 29 31 32 -32 33 -32 -30 -30z m-4818 57 l28
-27 -32 -28 -33 -28 -29 30 -30 29 24 26 c30 32 37 31 72 -2z m4298 12 c-7 -8
-17 -15 -23 -15 -6 0 -2 7 9 15 25 19 30 19 14 0z m1280 -48 c0 -54 0 -54 -47
-80 l-48 -27 48 0 47 0 0 -45 c0 -42 -2 -45 -26 -45 l-25 0 21 -30 c42 -59 35
-161 -13 -195 -19 -13 -19 -16 -6 -27 38 -31 49 -62 49 -140 l0 -78 -125 0
-125 0 0 69 c0 78 8 105 41 140 20 21 20 24 6 33 -32 17 -47 64 -47 143 l0 76
37 -3 37 -3 3 -58 c3 -68 14 -87 53 -87 37 0 54 22 44 57 -7 25 -8 26 -11 7
-4 -21 -45 -39 -58 -26 -3 3 -5 32 -5 64 l0 58 -50 0 -50 0 0 45 0 45 48 0 47
0 -45 26 c-25 14 -47 28 -49 30 -5 5 -2 86 4 92 2 2 27 -12 57 -32 29 -20 58
-36 64 -36 6 0 35 18 65 40 30 21 55 39 57 40 1 0 2 -24 2 -53z m69 -307 c0
-209 -4 -350 -10 -350 -5 0 -9 143 -9 356 0 217 4 353 9 349 6 -3 10 -150 10
-355z m-6811 337 c8 -10 51 -13 172 -12 89 1 164 -3 166 -7 3 -4 -59 -8 -138
-8 l-144 0 -39 -40 -39 -40 -28 27 c-35 33 -35 46 -2 72 31 25 38 26 52 8z
m2299 -9 c29 -27 29 -39 -1 -67 -20 -19 -27 -21 -43 -10 -40 24 -44 45 -16 73
31 31 31 31 60 4z m2553 -25 c0 -2 -9 1 -20 7 -28 15 -45 3 -28 -18 11 -15 11
-15 -3 -5 -11 9 -19 9 -26 2 -6 -6 -16 -8 -23 -4 -15 9 8 38 26 31 7 -3 16 -1
19 4 4 6 1 10 -5 10 -6 0 -8 4 -5 10 5 8 65 -26 65 -37z m445 16 c11 -17 -1
-21 -15 -4 -8 9 -8 15 -2 15 6 0 14 -5 17 -11z m-192 -6 c-23 -2 -64 -2 -90 0
-26 2 -7 3 42 3 50 0 71 -1 48 -3z m-5633 -75 c46 -89 60 -93 345 -91 145 0
226 -2 205 -7 -19 -5 -127 -9 -239 -10 -128 0 -211 -5 -224 -12 -20 -10 -18
-12 19 -31 27 -14 58 -20 104 -20 36 0 49 -2 30 -4 -65 -7 -67 -13 -17 -42
l47 -28 -94 -47 c-102 -51 -103 -52 -171 -184 l-38 -72 -32 52 c-17 29 -42 74
-54 100 -21 42 -33 51 -123 98 -55 29 -98 53 -96 55 3 3 73 40 159 85 32 17
47 39 105 150 21 39 39 68 42 66 2 -3 16 -29 32 -58z m2273 30 c29 -56 82
-147 92 -157 6 -6 50 -33 98 -60 83 -48 92 -51 157 -51 40 0 70 -4 70 -10 0
-6 -27 -10 -61 -10 -39 0 -58 -4 -54 -10 4 -7 47 -10 113 -8 198 5 412 -1 412
-13 0 -8 -90 -10 -305 -8 -167 2 -307 0 -310 -3 -9 -9 110 -21 133 -13 11 3
23 2 26 -3 3 -6 -47 -11 -122 -14 -70 -2 -136 -9 -147 -15 -11 -6 -42 -54 -70
-107 -27 -53 -54 -95 -58 -93 -5 1 -31 46 -60 99 l-50 97 -99 51 c-113 59
-113 53 2 109 36 18 72 38 81 44 14 10 63 93 108 180 18 35 24 34 44 -5z
m2552 -31 c51 -86 60 -88 335 -86 268 2 257 2 244 -11 -5 -5 -104 -10 -224
-11 -216 -1 -280 -6 -280 -18 0 -20 72 -43 126 -41 81 3 88 0 30 -14 l-50 -12
37 -17 c20 -10 39 -22 42 -27 3 -5 -35 -30 -85 -55 -97 -49 -120 -74 -180
-202 -14 -29 -29 -51 -33 -50 -5 2 -25 32 -44 67 -67 123 -75 132 -164 179
-46 23 -87 46 -91 50 -5 4 25 24 65 45 92 49 130 78 148 113 65 127 81 154 87
148 4 -3 21 -30 37 -58z m535 34 c-5 -10 -16 -21 -24 -24 -17 -7 -42 18 -27
27 5 4 12 2 16 -4 11 -17 25 -11 25 11 0 11 5 17 10 14 7 -4 7 -12 0 -24z
m531 12 c13 -15 12 -15 -8 -4 -24 12 -29 21 -14 21 5 0 15 -7 22 -17z m-1 -51
c0 -4 -21 -6 -46 -3 -42 3 -45 2 -36 -15 5 -11 7 -25 5 -31 -3 -7 1 -13 9 -14
22 -1 103 -10 104 -12 6 -8 8 -147 2 -147 -4 0 -8 32 -8 70 l0 70 -60 0 c-56
0 -60 2 -60 23 0 12 -3 32 -6 45 -6 21 -3 22 45 22 28 0 51 -3 51 -8z m168 1
c-16 -2 -40 -2 -55 0 -16 2 -3 4 27 4 30 0 43 -2 28 -4z m620 -10 c-10 -2 -28
-2 -40 0 -13 2 -5 4 17 4 22 1 32 -1 23 -4z m791 -20 c18 4 19 2 10 -15 -7
-14 -7 -23 2 -34 10 -12 9 -13 -5 -8 -10 4 -25 -1 -36 -11 -18 -16 -18 -16
-13 4 4 15 -1 23 -18 29 l-23 9 22 5 c13 4 22 14 22 25 0 14 2 15 9 4 5 -8 18
-12 30 -8z m-1375 -44 c-28 -11 -54 -10 -54 2 0 5 4 7 10 4 5 -3 18 -2 27 4
10 5 22 7 27 3 5 -3 1 -9 -10 -13z m-226 -91 c-1 -52 -1 -52 -7 -13 -4 26 -11
40 -21 40 -11 0 -16 -14 -18 -53 l-4 -54 34 6 c21 4 26 3 14 -2 -21 -9 -30
-71 -11 -84 6 -5 3 -8 -7 -8 -29 0 -37 25 -45 143 l-6 77 37 0 36 0 -2 -52z
m1578 -29 c3 -6 14 -9 23 -6 14 3 17 -2 17 -29 -1 -26 -5 -33 -16 -29 -8 4
-22 -4 -32 -17 l-18 -23 0 28 c0 17 -5 27 -15 27 -8 0 -15 5 -15 10 0 6 7 10
15 10 8 0 15 9 15 20 0 22 15 27 26 9z m-1213 -16 c-24 -2 -62 -2 -85 0 -24 2
-5 4 42 4 47 0 66 -2 43 -4z m-318 -68 l30 -25 -30 15 c-16 8 -36 15 -42 15
-7 0 -13 5 -13 10 0 17 24 11 55 -15z m105 11 c0 -2 -9 -6 -20 -9 -11 -3 -18
-1 -14 4 5 9 34 13 34 5z m44 -28 c-22 -45 -26 -47 -20 -15 6 32 14 47 27 47
5 0 2 -15 -7 -32z m1534 6 c24 6 25 5 10 -7 -20 -15 -24 -37 -8 -37 6 0 10 -5
10 -12 0 -9 -3 -9 -12 0 -9 9 -16 8 -30 -5 -17 -15 -18 -15 -18 5 0 14 -6 22
-17 22 -17 1 -17 1 0 11 9 5 17 20 17 32 1 20 1 21 11 4 8 -14 18 -17 37 -13z
m-123 -88 c17 7 18 6 7 -8 -7 -8 -10 -23 -6 -32 4 -11 1 -16 -13 -16 -10 0
-25 -6 -32 -12 -10 -11 -11 -10 -6 4 5 13 1 20 -16 26 l-23 9 23 12 c17 9 21
19 17 34 -5 22 -5 22 12 -1 13 -17 23 -21 37 -16z m-1645 -66 c0 -5 -5 -10
-11 -10 -5 0 -7 5 -4 10 3 6 8 10 11 10 2 0 4 -4 4 -10z m-23 -97 c-3 -10 -5
-4 -5 12 0 17 2 24 5 18 2 -7 2 -21 0 -30z m871 10 c-15 -2 -42 -2 -60 0 -18
2 -6 4 27 4 33 0 48 -2 33 -4z m-8430 -19 c26 -18 28 -50 5 -76 -20 -22 -51
-23 -75 -1 -24 21 -23 48 2 73 24 24 38 25 68 4z m951 2 c19 -23 9 -79 -15
-91 -12 -6 -29 -17 -38 -24 -15 -12 -21 -10 -46 14 l-29 28 36 43 c37 46 70
56 92 30z m6253 -3 c42 -38 5 -101 -53 -89 -25 5 -35 1 -49 -17 l-18 -22 -31
29 c-17 17 -31 33 -31 37 0 4 14 17 31 30 22 15 34 18 41 11 8 -8 18 -4 34 13
27 29 50 32 76 8z m969 -24 l11 -21 22 21 22 21 32 -33 32 -33 -30 -29 -30
-29 -29 28 c-28 27 -30 27 -54 11 -20 -13 -30 -14 -46 -5 -31 16 -44 46 -31
71 23 43 77 42 101 -2z m-2421 -44 c0 -6 -11 -22 -25 -35 l-25 -24 -30 29 -29
28 27 32 27 32 28 -25 c15 -14 27 -31 27 -37z m-1193 48 c-4 -3 2 -12 13 -20
11 -8 20 -18 20 -23 0 -5 -11 1 -25 14 -27 25 -31 36 -13 36 6 0 8 -3 5 -7z
m-3569 -153 c17 -11 32 -24 32 -30 0 -6 61 -11 163 -12 l162 -2 -158 -3 c-144
-3 -158 -5 -155 -21 2 -10 14 -18 31 -20 37 -4 35 -22 -3 -22 -32 0 -40 -14
-14 -24 9 -3 176 -7 372 -8 l357 -2 -373 -6 c-342 -5 -374 -6 -383 -22 -6 -12
-22 -18 -42 -18 l-32 1 30 16 c32 17 45 31 45 51 0 8 -20 12 -65 12 -60 0 -66
-2 -82 -27 -28 -45 -54 -63 -90 -63 -37 0 -79 36 -89 76 -3 13 -11 21 -19 18
-7 -3 -16 -1 -20 5 -7 12 11 14 98 12 32 -1 64 3 72 9 10 8 16 7 24 -7 14 -23
14 -8 1 18 -12 21 -79 27 -124 9 -28 -10 -29 -8 -20 28 5 17 14 22 37 22 29 0
30 -1 11 -15 -17 -13 -15 -14 35 -15 40 0 58 5 70 18 40 45 79 52 129 22z
m4811 5 c16 -8 31 -21 34 -30 5 -12 33 -15 164 -17 l158 -2 -150 -6 c-135 -4
-150 -7 -153 -23 -3 -15 2 -18 20 -16 12 2 23 -1 23 -6 0 -6 -31 -10 -70 -10
-116 -1 -121 -2 -135 -35 -25 -61 -101 -80 -145 -35 -14 13 -25 32 -25 42 0
15 2 14 16 -5 8 -12 25 -22 36 -22 22 0 58 26 58 42 0 4 -36 8 -80 8 -44 0
-80 4 -80 9 0 5 10 11 22 13 17 2 25 13 31 41 8 33 12 37 40 36 18 0 26 -3 20
-6 -26 -10 -12 -23 25 -24 25 -1 29 -3 12 -6 -81 -12 -90 -15 -90 -28 0 -11
13 -15 55 -15 44 0 56 4 65 20 6 11 8 20 6 20 -8 0 42 48 61 59 25 15 49 13
82 -4z m1410 -22 c14 -15 24 -29 22 -31 -11 -9 10 -42 28 -42 12 0 21 -5 21
-11 0 -5 -10 -9 -22 -7 -18 2 -23 -3 -28 -28 -10 -46 -18 -54 -53 -54 l-32 0
30 16 c31 16 45 31 45 52 0 8 -20 12 -69 12 -67 0 -69 -1 -81 -30 -7 -17 -26
-38 -42 -46 -27 -14 -31 -14 -45 3 -13 16 -14 16 -9 1 6 -21 -14 -24 -32 -6
-15 15 -16 32 -2 23 15 -9 56 20 62 43 5 17 1 19 -31 15 -20 -2 -56 0 -81 5
-25 6 -36 10 -24 11 21 1 44 37 44 67 0 12 12 14 57 12 68 -4 84 -24 18 -23
-44 0 -59 -8 -79 -42 -5 -10 8 -13 54 -13 60 0 61 1 75 34 32 75 122 96 174
39z m1216 18 l90 -7 -77 -2 -77 -2 14 -32 c9 -23 21 -34 39 -36 32 -4 35 -32
3 -32 -18 0 -26 -9 -37 -42 -14 -39 -18 -43 -52 -46 -46 -4 -49 11 -8 28 27
11 50 36 50 54 0 3 -29 6 -65 6 -61 0 -65 -1 -80 -29 -21 -41 -53 -61 -96 -61
-29 0 -43 7 -63 31 -14 17 -26 37 -26 45 0 8 -9 14 -20 14 -25 0 -26 20 -2 27
10 2 24 20 31 39 13 35 41 50 78 42 15 -4 12 -7 -12 -19 -30 -14 -54 -37 -55
-51 0 -5 25 -8 55 -8 53 0 56 1 80 39 32 52 52 63 100 56 22 -4 81 -10 130
-14z m-1017 -38 c-32 -2 -84 -2 -115 0 -32 2 -6 3 57 3 63 0 89 -1 58 -3z
m-494 -99 c10 -38 0 -41 -12 -5 -6 17 -7 31 -3 31 5 0 12 -12 15 -26z m-1049
6 c4 -6 140 -11 368 -12 l362 -3 -368 -5 c-324 -4 -370 -7 -380 -21 -12 -16
-90 -32 -81 -17 3 4 11 8 19 8 7 0 24 13 37 29 25 32 33 36 43 21z m-5938 -6
c-3 -3 -12 -4 -19 -1 -8 3 -5 6 6 6 11 1 17 -2 13 -5z m81 -1 c-10 -2 -26 -2
-35 0 -10 3 -2 5 17 5 19 0 27 -2 18 -5z m10 -30 c-15 -2 -42 -2 -60 0 -18 2
-6 4 27 4 33 0 48 -2 33 -4z m59 1 c-3 -3 -12 -4 -19 -1 -8 3 -5 6 6 6 11 1
17 -2 13 -5z m340 -1 c-31 -2 -83 -2 -115 0 -31 2 -5 3 58 3 63 0 89 -1 57 -3z
m501 -93 c7 0 12 -4 12 -10 0 -5 7 -10 15 -10 13 0 14 -2 3 -14 -7 -8 -16 -12
-20 -9 -5 2 -8 0 -8 -6 0 -6 -9 -15 -21 -22 -17 -9 -25 -7 -45 12 -29 28 -29
30 -1 61 19 22 24 24 38 12 8 -8 21 -14 27 -14z m4836 -12 c-3 -4 5 -8 15 -10
16 -2 10 -9 -27 -33 l-47 -30 -27 26 c-26 25 -26 27 -11 49 16 22 17 23 24 4
6 -16 8 -15 8 7 l1 26 34 -16 c18 -9 32 -19 30 -23z m2486 34 c0 -5 15 -17 33
-26 28 -15 47 -16 152 -8 174 13 455 15 455 4 0 -18 -55 -24 -180 -18 -69 4
-188 2 -265 -2 l-140 -9 108 -1 c73 -2 107 -6 107 -14 0 -8 -29 -9 -108 -4
-95 5 -111 4 -143 -13 l-37 -20 -28 30 -28 29 29 30 c29 30 45 38 45 22z
m-1135 -40 c-2 -2 -15 0 -29 4 -21 5 -24 9 -15 20 10 12 14 12 29 -3 10 -10
16 -19 15 -21z m232 32 c-3 -3 -12 -4 -19 -1 -8 3 -5 6 6 6 11 1 17 -2 13 -5z
m66 -1 c-7 -2 -21 -2 -30 0 -10 3 -4 5 12 5 17 0 24 -2 18 -5z m125 0 c-15 -2
-42 -2 -60 0 -18 2 -6 4 27 4 33 0 48 -2 33 -4z m-1685 -10 c-7 -2 -21 -2 -30
0 -10 3 -4 5 12 5 17 0 24 -2 18 -5z m1300 0 c-7 -2 -19 -2 -25 0 -7 3 -2 5
12 5 14 0 19 -2 13 -5z m-83 -27 c0 -2 -8 -10 -17 -17 -16 -13 -17 -12 -4 4
13 16 21 21 21 13z m614 -96 c14 -22 34 -40 44 -41 15 0 15 -1 -1 -8 -18 -7
-18 -8 -1 -21 14 -12 84 -16 388 -20 l371 -5 -367 -3 c-381 -2 -383 -2 -359
-41 9 -14 59 -45 156 -97 32 -17 45 -29 35 -32 -35 -11 -176 -85 -190 -101 -9
-9 -22 -32 -30 -51 -7 -19 -18 -41 -24 -49 -16 -21 -35 -54 -42 -74 -6 -16 -8
-16 -20 5 -31 52 -52 103 -48 110 3 4 -2 8 -11 8 -11 0 -15 5 -11 16 3 8 2 12
-3 9 -5 -3 -12 3 -15 12 -3 10 -49 40 -101 68 -52 27 -95 52 -95 55 0 3 42 27
93 53 l92 49 54 99 c29 54 55 99 56 99 1 0 14 -18 29 -40z m-4834 5 c0 -7 -9
-17 -20 -20 -11 -3 -20 -12 -20 -19 0 -8 -7 -19 -15 -26 -11 -9 -13 -16 -5
-24 17 -17 12 -35 -10 -29 -12 3 -20 0 -20 -8 0 -7 -3 -10 -6 -7 -9 9 77 159
87 152 5 -3 9 -11 9 -19z m-1183 -41 c-3 -3 -12 -4 -19 -1 -8 3 -5 6 6 6 11 1
17 -2 13 -5z m1218 -15 c10 -29 3 -31 -18 -3 -15 20 -15 24 -3 24 8 0 18 -9
21 -21z m252 15 c-3 -3 -12 -4 -19 -1 -8 3 -5 6 6 6 11 1 17 -2 13 -5z m4826
-1 c-7 -2 -21 -2 -30 0 -10 3 -4 5 12 5 17 0 24 -2 18 -5z m-6134 -30 c29 -13
99 -17 385 -24 191 -4 351 -11 355 -14 3 -4 -122 -6 -279 -5 -351 3 -348 4
-332 -12 10 -10 95 -14 340 -16 180 -1 333 -5 341 -8 39 -13 -25 -16 -311 -15
-172 1 -318 -2 -325 -7 -28 -18 26 -51 89 -54 41 -1 41 -2 -12 -7 -46 -5 -55
-9 -55 -26 0 -19 9 -20 115 -26 l115 -5 -122 -2 c-116 -2 -123 -3 -123 -22 0
-19 7 -20 177 -20 97 0 174 -2 172 -4 -2 -2 -90 -7 -194 -11 -202 -6 -250 -13
-291 -39 -13 -9 -29 -14 -34 -11 -6 3 -10 2 -10 -3 0 -22 -128 -51 -140 -32
-4 6 -26 11 -49 12 -65 1 -143 67 -157 136 -1 6 1 12 6 12 4 0 10 14 12 30 3
20 0 30 -9 30 -25 0 -9 41 37 93 34 39 78 61 117 58 17 -1 35 4 39 10 9 14 94
4 143 -18z m4771 17 c19 -5 53 -15 75 -23 31 -12 115 -16 377 -19 186 -2 341
-7 345 -11 8 -9 35 -8 -319 -7 -200 1 -298 -3 -298 -10 0 -5 1 -11 3 -12 1 0
157 -4 347 -7 441 -8 453 -24 18 -25 -174 -1 -320 -5 -325 -9 -16 -16 38 -47
86 -49 l46 -1 -55 -6 c-46 -5 -55 -9 -55 -26 0 -19 8 -20 115 -25 l115 -4
-120 -6 c-98 -4 -120 -8 -120 -20 0 -13 29 -16 180 -20 l180 -5 -145 -7 c-80
-5 -174 -8 -210 -8 -54 0 -78 -6 -137 -34 -81 -39 -185 -65 -191 -47 -2 6 -19
11 -38 11 -50 0 -110 34 -144 82 -34 47 -36 54 -15 74 8 9 15 24 15 35 0 10
-7 19 -15 19 -19 0 -19 13 1 52 30 57 99 103 152 99 17 -1 32 3 32 9 0 12 53
13 100 0z m2301 -14 c90 -29 204 -50 218 -41 6 3 11 1 11 -4 0 -6 -7 -11 -15
-11 -8 0 -15 -4 -15 -10 0 -6 35 -11 83 -12 l82 -2 -68 -5 c-78 -7 -89 -23
-20 -32 l48 -6 -42 -1 c-31 -2 -45 -7 -53 -22 -12 -23 0 -27 85 -33 l50 -3
-57 -2 c-62 -2 -108 -18 -108 -37 0 -7 -10 -24 -21 -39 -12 -15 -18 -30 -15
-33 4 -4 36 -7 71 -7 97 0 79 -15 -22 -18 -58 -2 -88 -7 -91 -15 -2 -9 10 -13
44 -13 73 0 49 -8 -50 -15 -49 -4 -103 -11 -120 -16 -42 -12 -106 -11 -106 1
0 6 -20 10 -44 10 -52 0 -108 39 -145 102 -22 37 -23 41 -8 50 21 11 23 58 2
58 -20 0 -19 8 6 50 39 65 108 114 146 104 12 -3 26 1 34 10 19 21 35 20 120
-8z m-4781 -12 c88 -28 116 -30 366 -20 95 3 149 2 134 -3 -14 -5 -83 -10
-155 -11 -143 -3 -198 -10 -177 -24 8 -5 45 -5 82 -2 44 5 70 3 75 -3 7 -12
-4 -13 -75 -12 -25 1 -52 -3 -60 -9 -19 -12 -21 -12 135 -12 l130 0 -125 -10
c-69 -5 -129 -13 -134 -18 -5 -5 -6 -16 -2 -25 5 -15 16 -16 76 -10 49 5 70 4
70 -4 0 -7 -24 -11 -65 -11 -35 0 -74 -5 -87 -10 -24 -11 -73 -89 -62 -99 3
-3 37 -5 75 -4 44 2 68 -1 64 -7 -3 -6 -46 -10 -96 -10 -72 0 -89 -3 -89 -15
0 -12 14 -15 63 -16 34 -1 143 -5 242 -9 176 -8 175 -8 -60 -4 -132 2 -271 -1
-310 -6 -38 -5 -91 -12 -117 -16 -33 -5 -48 -3 -48 5 0 6 -16 11 -35 11 -20 0
-48 6 -63 14 -56 30 -132 136 -97 136 21 0 20 57 0 62 -13 3 -12 10 6 45 28
57 91 103 140 103 21 0 41 5 44 10 11 17 73 11 155 -16z m-670 -17 c47 -2 -55
-4 -227 -5 -171 -1 -314 1 -316 6 -5 6 334 6 543 -1z m323 -4 c-7 -2 -19 -2
-25 0 -7 3 -2 5 12 5 14 0 19 -2 13 -5z m5495 -10 c-10 -2 -26 -2 -35 0 -10 3
-2 5 17 5 19 0 27 -2 18 -5z m-6368 -8 c0 -7 -30 -13 -34 -7 -3 4 4 9 15 9 10
1 19 0 19 -2z m40 -34 c0 -5 14 -14 30 -21 17 -7 29 -15 26 -17 -2 -2 -17 2
-34 11 -16 8 -32 13 -34 11 -3 -3 -5 2 -5 10 0 8 4 15 9 15 4 0 8 -4 8 -9z
m6437 -27 c-3 -3 -12 -4 -19 -1 -8 3 -5 6 6 6 11 1 17 -2 13 -5z m-6734 -42
c-13 -2 -23 -7 -23 -11 0 -4 -7 -8 -15 -8 -21 0 -19 4 12 21 16 8 32 11 38 8
5 -4 0 -8 -12 -10z m123 6 c4 -6 3 -8 -2 -5 -6 3 -16 2 -24 -4 -12 -6 -9 -9
11 -9 14 0 31 6 39 13 12 10 12 9 1 -5 -9 -12 -27 -18 -50 -18 l-36 1 24 19
c27 23 28 23 37 8z m269 2 c3 -5 1 -10 -4 -10 -6 0 -11 5 -11 10 0 6 2 10 4
10 3 0 8 -4 11 -10z m-61 -16 c3 -8 2 -12 -4 -9 -6 3 -10 10 -10 16 0 14 7 11
14 -7z m-40 -2 c3 -4 -11 -9 -30 -9 -18 -1 -31 3 -28 8 7 11 51 12 58 1z
m-1444 -12 c0 -5 -2 -10 -4 -10 -3 0 -8 5 -11 10 -3 6 -1 10 4 10 6 0 11 -4
11 -10z m1187 4 c-3 -3 -12 -4 -19 -1 -8 3 -5 6 6 6 11 1 17 -2 13 -5z m1103
-8 c0 -3 -4 -8 -10 -11 -5 -3 -10 -1 -10 4 0 6 5 11 10 11 6 0 10 -2 10 -4z
m4820 -6 c0 -5 -4 -10 -10 -10 -5 0 -10 5 -10 10 0 6 5 10 10 10 6 0 10 -4 10
-10z m-5840 -34 c0 -11 -19 -15 -25 -6 -3 5 1 10 9 10 9 0 16 -2 16 -4z m174
-11 c-4 -8 -8 -15 -10 -15 -2 0 -4 7 -4 15 0 8 4 15 10 15 5 0 7 -7 4 -15z
m59 8 c-7 -2 -19 -2 -25 0 -7 3 -2 5 12 5 14 0 19 -2 13 -5z m6375 -140 c-32
-2 -84 -2 -115 0 -32 2 -6 3 57 3 63 0 89 -1 58 -3z m-593 -23 c3 -5 -1 -10
-9 -10 -9 0 -16 5 -16 10 0 6 4 10 9 10 6 0 13 -4 16 -10z m-4200 -220 c3 -6
-1 -7 -9 -4 -18 7 -21 14 -7 14 6 0 13 -4 16 -10z m1383 -7 c-10 -2 -26 -2
-35 0 -10 3 -2 5 17 5 19 0 27 -2 18 -5z m95 0 c-13 -2 -35 -2 -50 0 -16 2 -5
4 22 4 28 0 40 -2 28 -4z"/>
<path d="M4730 3050 c0 -5 5 -10 11 -10 5 0 7 5 4 10 -3 6 -8 10 -11 10 -2 0
-4 -4 -4 -10z"/>
<path d="M7254 3069 c-3 -6 -2 -15 3 -20 5 -5 9 -1 9 11 0 23 -2 24 -12 9z"/>
<path d="M472 2938 l-20 -32 20 -25 c24 -31 25 -31 49 5 13 20 15 32 8 41 -6
6 -7 18 -3 24 4 8 3 9 -4 5 -7 -4 -12 -2 -12 3 0 21 -18 11 -38 -21z"/>
<path d="M483 2800 c-12 -10 -24 -28 -28 -40 -5 -16 -15 -20 -52 -20 l-46 0
23 25 c13 14 29 25 37 25 7 0 13 4 13 10 0 12 -50 10 -67 -3 -7 -5 -13 -18
-13 -29 0 -11 -9 -22 -20 -25 -23 -6 -27 -33 -5 -33 9 0 18 -8 22 -17 22 -64
87 -72 139 -18 27 29 40 35 73 35 48 0 53 -14 11 -38 -37 -21 -38 -34 -2 -31
37 4 52 17 52 45 0 19 5 24 26 24 19 0 25 4 22 18 -2 11 -11 16 -26 14 -17 -2
-22 2 -22 17 0 55 -93 83 -137 41z m117 -46 c0 -9 -12 -14 -35 -14 -37 0 -46
13 -19 28 22 12 54 4 54 -14z m-180 -59 c-7 -8 -18 -15 -25 -15 -7 0 -18 7
-25 15 -11 13 -7 15 25 15 32 0 36 -2 25 -15z"/>
<path d="M477 2576 c-22 -32 -21 -45 2 -76 l19 -24 13 27 c7 15 16 27 21 27
13 0 9 13 -16 43 l-23 28 -16 -25z"/>
<path d="M5310 2983 c0 -11 -9 -32 -20 -46 -19 -23 -19 -28 -6 -44 9 -10 22
-27 30 -38 15 -20 15 -20 16 1 0 11 9 29 19 38 20 18 20 18 0 39 -10 11 -20
24 -20 29 -1 4 -2 12 -3 17 -2 20 -16 23 -16 4z"/>
<path d="M5384 2842 c7 -12 -23 -23 -68 -26 -13 0 -22 -4 -19 -9 2 -4 -5 -20
-16 -36 -17 -23 -28 -29 -61 -29 -37 -1 -39 1 -27 19 7 11 22 22 35 25 29 8
28 24 -2 24 -40 0 -56 -11 -56 -37 0 -16 -7 -27 -20 -30 -25 -7 -27 -33 -2
-33 9 0 24 -15 32 -33 25 -53 101 -51 133 3 16 26 24 30 63 30 51 0 56 -13 14
-39 -34 -20 -30 -31 11 -31 23 0 30 6 39 35 8 24 18 35 31 35 10 0 19 7 19 15
0 8 -9 15 -21 15 -14 0 -24 10 -32 33 -6 17 -10 35 -9 40 1 4 -1 6 -5 6 -20
-3 -34 2 -28 10 3 5 0 13 -6 17 -8 4 -9 3 -5 -4z m33 -88 c2 -6 -11 -11 -32
-11 -28 0 -33 3 -23 14 13 16 50 14 55 -3z m-177 -59 c-15 -19 -21 -19 -46 0
-18 13 -16 14 20 15 33 0 37 -2 26 -15z"/>
<path d="M5296 2575 c-17 -26 -17 -30 -1 -63 l16 -36 24 30 c30 36 30 33 2 68
l-23 28 -18 -27z"/>
<path d="M6775 2900 c-3 -5 1 -10 10 -10 9 0 13 5 10 10 -3 6 -8 10 -10 10 -2
0 -7 -4 -10 -10z"/>
<path d="M6632 2892 c-9 -3 -7 -9 8 -19 12 -8 24 -13 27 -9 9 9 -21 33 -35 28z"/>
<path d="M6807 2876 c-19 -15 -22 -26 -6 -26 15 0 41 28 31 33 -4 3 -15 0 -25
-7z"/>
<path d="M6595 2870 c-3 -5 -1 -10 4 -10 6 0 11 5 11 10 0 6 -2 10 -4 10 -3 0
-8 -4 -11 -10z"/>
<path d="M6892 2839 c2 -7 10 -15 17 -17 8 -3 12 1 9 9 -2 7 -10 15 -17 17 -8
3 -12 -1 -9 -9z"/>
<path d="M6697 2833 c-13 -12 -7 -51 9 -67 30 -31 81 26 54 59 -13 15 -51 20
-63 8z"/>
<path d="M6620 2804 c0 -8 5 -12 10 -9 6 4 8 11 5 16 -9 14 -15 11 -15 -7z"/>
<path d="M6530 2800 c0 -5 5 -10 10 -10 6 0 10 5 10 10 0 6 -4 10 -10 10 -5 0
-10 -4 -10 -10z"/>
<path d="M6580 2800 c0 -5 5 -10 10 -10 6 0 10 5 10 10 0 6 -4 10 -10 10 -5 0
-10 -4 -10 -10z"/>
<path d="M6870 2800 c0 -5 7 -10 15 -10 8 0 15 5 15 10 0 6 -7 10 -15 10 -8 0
-15 -4 -15 -10z"/>
<path d="M6930 2765 c0 -8 5 -15 10 -15 6 0 10 7 10 15 0 8 -4 15 -10 15 -5 0
-10 -7 -10 -15z"/>
<path d="M6962 2768 c6 -18 28 -21 28 -4 0 9 -7 16 -16 16 -9 0 -14 -5 -12
-12z"/>
<path d="M6630 2760 c0 -5 5 -10 10 -10 6 0 10 5 10 10 0 6 -4 10 -10 10 -5 0
-10 -4 -10 -10z"/>
<path d="M6870 2760 c0 -5 7 -10 15 -10 8 0 15 5 15 10 0 6 -7 10 -15 10 -8 0
-15 -4 -15 -10z"/>
<path d="M6820 2725 c0 -8 4 -15 9 -15 5 0 11 7 15 15 3 9 0 15 -9 15 -8 0
-15 -7 -15 -15z"/>
<path d="M6630 2695 c0 -8 5 -15 10 -15 6 0 10 7 10 15 0 8 -4 15 -10 15 -5 0
-10 -7 -10 -15z"/>
<path d="M6870 2696 c0 -9 7 -16 16 -16 9 0 14 5 12 12 -6 18 -28 21 -28 4z"/>
<path d="M6702 2688 c-16 -16 -15 -65 2 -71 21 -8 54 3 61 20 7 19 -20 63 -38
63 -7 0 -18 -5 -25 -12z"/>
<path d="M6930 2684 c0 -8 5 -12 10 -9 6 3 10 10 10 16 0 5 -4 9 -10 9 -5 0
-10 -7 -10 -16z"/>
<path d="M6970 2684 c0 -8 5 -12 10 -9 6 3 10 10 10 16 0 5 -4 9 -10 9 -5 0
-10 -7 -10 -16z"/>
<path d="M6532 2658 c2 -6 10 -14 16 -16 7 -2 10 2 6 12 -7 18 -28 22 -22 4z"/>
<path d="M6870 2660 c0 -5 7 -10 16 -10 8 0 12 5 9 10 -3 6 -10 10 -16 10 -5
0 -9 -4 -9 -10z"/>
<path d="M6580 2650 c0 -5 5 -10 10 -10 6 0 10 5 10 10 0 6 -4 10 -10 10 -5 0
-10 -4 -10 -10z"/>
<path d="M6620 2650 c0 -5 5 -10 10 -10 6 0 10 5 10 10 0 6 -4 10 -10 10 -5 0
-10 -4 -10 -10z"/>
<path d="M6890 2620 c0 -5 7 -10 15 -10 8 0 15 5 15 10 0 6 -7 10 -15 10 -8 0
-15 -4 -15 -10z"/>
<path d="M6590 2590 c0 -5 7 -10 16 -10 8 0 12 5 9 10 -3 6 -10 10 -16 10 -5
0 -9 -4 -9 -10z"/>
<path d="M6804 2585 c8 -8 19 -15 25 -15 17 0 13 17 -5 24 -27 10 -36 7 -20
-9z"/>
<path d="M6635 2579 c-12 -18 3 -22 20 -5 14 14 14 16 1 16 -8 0 -18 -5 -21
-11z"/>
<path d="M6770 2560 c0 -5 7 -10 15 -10 8 0 15 5 15 10 0 6 -7 10 -15 10 -8 0
-15 -4 -15 -10z"/>
<path d="M1840 2681 c0 -5 5 -13 10 -16 6 -3 10 -2 10 4 0 5 -4 13 -10 16 -5
3 -10 2 -10 -4z"/>
<path d="M5890 2300 c0 -5 5 -10 10 -10 6 0 10 5 10 10 0 6 -4 10 -10 10 -5 0
-10 -4 -10 -10z"/>
<path d="M5925 2283 c-31 -7 -40 -21 -11 -16 15 3 29 9 32 14 3 5 4 8 2 8 -2
-1 -12 -3 -23 -6z"/>
<path d="M1142 2132 c-36 -31 -27 -42 33 -42 37 0 55 4 55 13 -1 40 -55 58
-88 29z"/>
<path d="M916 2058 c23 -42 35 -48 64 -33 15 8 30 21 33 30 5 12 -3 15 -49 15
-41 0 -53 -3 -48 -12z"/>
<path d="M3679 2138 c-8 -7 -21 -21 -28 -30 -12 -17 -9 -18 48 -18 67 0 80 15
39 44 -27 19 -40 20 -59 4z"/>
<path d="M3450 2057 c0 -35 47 -48 74 -21 26 25 19 34 -29 34 -30 0 -45 -4
-45 -13z"/>
<path d="M3632 2048 c3 -18 10 -22 53 -24 51 -2 75 8 75 32 0 11 -17 14 -66
14 -61 0 -65 -1 -62 -22z"/>
<path d="M5961 2129 c-11 -13 -21 -26 -21 -31 0 -4 25 -8 55 -8 37 0 55 4 55
13 0 21 -14 35 -41 42 -20 5 -32 1 -48 -16z"/>
<path d="M5740 2056 c0 -40 63 -46 88 -8 14 22 14 22 -37 22 -37 0 -51 -4 -51
-14z"/>
<path d="M8504 2137 c-20 -11 -34 -27 -34 -39 0 -5 25 -8 55 -8 40 0 55 4 55
14 0 28 -47 49 -76 33z"/>
<path d="M8272 2054 c5 -28 33 -39 62 -26 44 20 33 42 -20 42 -37 0 -45 -3
-42 -16z"/>
<path d="M8445 2060 c-3 -5 -1 -10 5 -10 6 0 9 -4 6 -9 -8 -12 97 -21 112 -9
6 6 12 17 12 24 0 10 -16 14 -64 14 -36 0 -68 -4 -71 -10z"/>
<path d="M2365 2103 c-54 -10 -65 -14 -65 -23 0 -6 24 -10 54 -10 48 0 66 9
66 34 0 3 -34 3 -55 -1z"/>
<path d="M2510 2090 c-10 -19 -7 -20 45 -20 49 0 55 2 47 16 -5 9 -25 18 -46
20 -27 2 -38 -2 -46 -16z"/>
<path d="M2300 2032 c0 -33 64 -43 80 -12 10 19 8 20 -35 20 -25 0 -45 -4 -45
-8z"/>
<path d="M4807 2102 c-26 -28 -21 -32 38 -32 42 0 55 4 55 15 0 34 -67 46 -93
17z"/>
<path d="M4592 2028 c8 -23 49 -38 69 -25 39 24 31 37 -22 37 -36 0 -49 -4
-47 -12z"/>
<path d="M541 1337 c-1 -10 -11 -22 -23 -27 l-23 -9 23 -7 c14 -4 22 -14 22
-28 1 -18 2 -19 10 -4 7 11 17 14 32 10 21 -5 22 -4 9 11 -11 14 -11 20 -1 32
11 13 8 15 -13 15 -14 0 -28 6 -30 13 -3 7 -6 5 -6 -6z"/>
<path d="M3071 1337 c-1 -10 -11 -22 -23 -27 l-23 -9 23 -7 c12 -3 22 -13 22
-21 0 -9 5 -11 13 -6 6 4 21 6 32 4 16 -3 17 -1 6 13 -11 13 -11 19 -1 31 11
13 8 15 -13 15 -14 0 -28 6 -30 13 -3 7 -6 5 -6 -6z"/>
<path d="M5361 1337 c-1 -10 -8 -20 -16 -23 -8 -4 -15 -10 -15 -15 0 -5 7 -9
15 -9 9 0 15 -9 15 -22 1 -21 2 -21 11 -5 7 12 17 16 31 11 17 -5 18 -3 9 14
-7 13 -7 22 1 30 9 9 6 12 -14 12 -15 0 -29 6 -31 13 -3 7 -6 5 -6 -6z"/>
<path d="M9090 1347 c0 -8 -6 -18 -12 -20 -10 -4 -10 -6 0 -6 6 -1 12 -8 12
-16 0 -8 5 -15 10 -15 6 0 10 5 10 11 0 6 6 9 14 6 10 -4 13 2 12 19 0 13 -4
24 -8 24 -3 0 -13 3 -22 6 -10 4 -16 1 -16 -9z"/>
<path d="M1902 1780 l-23 -31 21 -29 c26 -37 32 -37 48 -3 16 35 15 43 -6 71
l-18 23 -22 -31z"/>
<path d="M1932 1653 c-7 -3 -24 -21 -37 -41 -22 -32 -31 -37 -65 -38 -22 0
-40 2 -40 5 0 13 17 27 45 40 24 10 27 14 14 21 -27 16 -58 0 -71 -36 -7 -19
-18 -34 -25 -34 -7 0 -13 -4 -13 -10 0 -5 6 -10 13 -10 6 0 18 -13 25 -28 12
-28 48 -52 77 -52 8 0 32 17 53 38 29 29 46 38 80 40 50 4 55 -11 12 -36 -39
-22 -38 -32 4 -32 30 0 35 4 41 31 4 19 16 34 32 40 13 5 22 13 18 19 -3 5
-12 7 -20 4 -9 -4 -18 1 -22 12 -17 48 -44 74 -76 73 -18 0 -38 -3 -45 -6z
m96 -65 c3 -13 -3 -18 -21 -18 -42 0 -58 9 -44 26 16 19 61 13 65 -8z m-175
-54 c-7 -18 -54 -16 -61 4 -2 8 8 12 32 12 28 0 34 -3 29 -16z"/>
<path d="M1903 1412 c-22 -26 -22 -27 -3 -57 21 -34 40 -44 40 -22 0 8 6 20
14 26 13 11 12 17 -6 47 -11 19 -21 34 -21 34 -1 0 -12 -13 -24 -28z"/>
<path d="M4186 1775 c-15 -23 -15 -27 0 -50 20 -31 24 -31 47 0 17 24 17 26 0
50 -23 31 -27 31 -47 0z"/>
<path d="M4218 1650 c-9 -6 -26 -26 -38 -45 -19 -31 -26 -35 -66 -35 -24 0
-44 3 -44 8 0 4 14 20 32 35 l33 28 -30 -3 c-24 -2 -32 -9 -40 -35 -5 -18 -15
-33 -22 -33 -7 0 -13 -4 -13 -10 0 -5 6 -10 13 -10 6 0 18 -13 25 -28 25 -57
87 -60 130 -6 24 30 32 34 75 34 26 0 47 -4 47 -9 0 -5 -15 -21 -32 -36 l-33
-26 35 3 c30 3 36 7 40 33 4 22 11 31 28 33 29 4 29 20 0 24 -15 2 -24 11 -26
25 -7 46 -73 76 -114 53z m100 -62 c3 -15 -4 -18 -43 -18 -43 0 -45 1 -35 21
14 26 73 24 78 -3z m-174 -52 c-8 -21 -42 -26 -59 -9 -22 21 -19 23 25 23 30
0 38 -3 34 -14z"/>
<path d="M4187 1403 c-12 -23 -12 -30 2 -55 17 -30 31 -37 31 -14 0 7 7 19 15
26 13 11 13 16 -2 41 -21 36 -29 36 -46 2z"/>
<path d="M6726 1778 c-20 -29 -20 -35 3 -64 l19 -24 16 25 c19 29 20 44 2 68
-17 22 -22 22 -40 -5z"/>
<path d="M6731 1625 c-17 -20 -31 -40 -31 -45 0 -6 -20 -10 -45 -10 -25 0 -45
4 -45 9 0 15 30 41 46 41 8 0 14 5 14 11 0 6 -12 9 -27 7 -22 -2 -30 -10 -38
-35 -6 -22 -15 -33 -27 -33 -10 0 -18 -4 -18 -10 0 -5 8 -10 18 -10 9 0 24
-15 32 -33 24 -52 95 -50 127 3 16 27 22 30 70 30 62 0 67 -12 18 -41 -19 -12
-35 -23 -35 -25 0 -2 16 -4 35 -4 31 0 35 3 41 35 4 25 11 35 25 35 11 0 19 5
19 10 0 6 -9 10 -20 10 -13 0 -20 7 -20 19 0 10 -11 30 -25 45 -35 38 -75 35
-114 -9z m127 -37 c3 -15 -4 -18 -43 -18 -43 0 -45 1 -35 21 14 26 73 24 78
-3z m-178 -48 c0 -18 -40 -32 -56 -19 -23 19 -16 29 21 29 19 0 35 -4 35 -10z"/>
<path d="M6724 1405 c-14 -22 -14 -26 2 -55 l18 -30 22 27 c20 25 20 28 5 55
-20 34 -26 35 -47 3z"/>
<path d="M1127 1024 c-4 -4 -7 -13 -7 -21 0 -9 16 -13 56 -13 47 0 55 3 52 18
-2 13 -15 18 -48 20 -25 2 -49 0 -53 -4z"/>
<path d="M915 972 c-11 -11 21 -52 41 -52 12 0 28 -2 36 -3 7 -2 9 -2 5 1 -5
2 0 13 9 23 9 11 14 22 10 26 -7 7 -94 12 -101 5z"/>
<path d="M1041 936 c-8 -9 -8 -16 -2 -20 6 -4 15 3 21 14 12 23 -2 27 -19 6z"/>
<path d="M5946 1015 c-3 -9 -6 -19 -6 -21 0 -2 25 -4 56 -4 47 0 55 3 52 18
-5 24 -93 30 -102 7z"/>
<path d="M7336 1028 c-24 -35 -20 -39 39 -37 59 2 69 14 37 42 -26 23 -58 21
-76 -5z"/>
<path d="M7244 934 c-18 -14 -18 -15 4 -4 12 6 22 13 22 15 0 8 -5 6 -26 -11z"/>
<path d="M8490 1025 l-23 -25 57 0 c54 0 56 1 46 20 -6 11 -15 20 -20 20 -4 0
-15 2 -22 5 -8 3 -25 -6 -38 -20z"/>
<path d="M8270 957 c0 -36 47 -48 73 -19 25 28 21 32 -28 32 -30 0 -45 -4 -45
-13z"/>
<path d="M1082 813 c2 -12 -3 -18 -14 -17 -21 2 -23 -10 -5 -23 15 -12 26 -11
55 5 26 15 21 32 -9 32 -11 0 -17 5 -14 10 3 6 1 10 -5 10 -6 0 -10 -8 -8 -17z"/>
<path d="M7826 649 c-17 -29 -17 -31 0 -52 11 -12 20 -24 22 -27 2 -3 14 8 27
24 22 27 22 30 6 57 -21 37 -32 36 -55 -2z"/>
<path d="M7864 529 c-11 -6 -28 -24 -38 -40 -15 -26 -23 -29 -64 -29 l-47 0
25 20 c14 11 28 20 33 20 4 0 7 5 7 11 0 6 -14 9 -32 7 -25 -2 -34 -9 -38 -28
-4 -17 -13 -25 -26 -24 -16 0 -20 -5 -16 -23 2 -13 10 -23 17 -23 6 0 17 -11
23 -24 28 -62 100 -67 137 -8 18 28 25 31 68 32 49 0 61 -12 28 -30 -25 -13
-34 -13 -25 1 4 7 -3 6 -17 -2 -13 -7 -26 -11 -29 -10 -3 1 -6 -9 -7 -21 -2
-21 -1 -21 5 -3 4 11 15 21 24 23 13 2 16 -2 11 -13 -5 -14 0 -16 28 -13 27 2
37 10 49 35 8 17 23 34 33 36 23 7 22 28 -3 34 -12 3 -28 19 -36 35 -22 42
-67 57 -110 37z m96 -59 c0 -5 -16 -10 -36 -10 -21 0 -33 4 -29 10 3 6 19 10
36 10 16 0 29 -4 29 -10z m-180 -55 c-14 -17 -46 -20 -55 -6 -3 5 9 12 27 14
18 2 35 5 37 5 2 1 -2 -5 -9 -13z"/>
<path d="M7830 285 c-21 -33 -21 -37 -6 -54 9 -10 16 -25 16 -34 0 -9 7 -17
16 -17 8 0 13 4 10 9 -3 5 3 20 15 34 19 25 19 28 4 51 -9 14 -14 30 -10 36 3
5 0 10 -9 10 -8 0 -24 -16 -36 -35z"/>
<path d="M1950 630 c0 -5 7 -10 15 -10 8 0 15 5 15 10 0 6 -7 10 -15 10 -8 0
-15 -4 -15 -10z"/>
<path d="M1785 612 c-17 -9 -24 -17 -17 -20 7 -2 20 2 28 9 13 10 17 10 24 0
8 -14 30 -7 30 10 0 6 -4 7 -10 4 -5 -3 -10 -1 -10 4 0 14 -8 13 -45 -7z"/>
<path d="M1983 605 c-18 -20 3 -30 22 -11 8 8 15 17 15 20 0 11 -25 5 -37 -9z"/>
<path d="M1872 564 c-6 -12 -6 -27 0 -46 8 -23 15 -29 36 -26 20 2 29 11 36
36 11 38 9 40 -31 48 -23 5 -33 2 -41 -12z"/>
<path d="M2072 568 c6 -18 28 -21 28 -4 0 9 -7 16 -16 16 -9 0 -14 -5 -12 -12z"/>
<path d="M1716 541 c-4 -7 -5 -15 -2 -18 9 -9 19 4 14 18 -4 11 -6 11 -12 0z"/>
<path d="M1760 534 c0 -8 5 -12 10 -9 6 3 10 10 10 16 0 5 -4 9 -10 9 -5 0
-10 -7 -10 -16z"/>
<path d="M1795 541 c-6 -11 9 -23 19 -14 9 9 7 23 -3 23 -6 0 -12 -4 -16 -9z"/>
<path d="M2056 543 c-11 -11 -6 -23 9 -23 8 0 15 4 15 9 0 13 -16 22 -24 14z"/>
<path d="M2107 513 c-11 -10 -8 -20 8 -27 10 -4 15 1 15 14 0 20 -11 26 -23
13z"/>
<path d="M2142 503 c5 -25 28 -28 28 -4 0 12 -6 21 -16 21 -9 0 -14 -7 -12
-17z"/>
<path d="M1810 495 c0 -8 7 -15 15 -15 9 0 12 6 9 15 -4 8 -10 15 -15 15 -5 0
-9 -7 -9 -15z"/>
<path d="M2050 490 c0 -13 5 -18 15 -14 8 4 15 12 15 20 0 8 -7 14 -15 14 -8
0 -15 -9 -15 -20z"/>
<path d="M1997 474 c-9 -10 2 -24 18 -24 9 0 12 6 9 15 -6 16 -17 19 -27 9z"/>
<path d="M1810 425 c0 -8 5 -15 10 -15 6 0 10 7 10 15 0 8 -4 15 -10 15 -5 0
-10 -7 -10 -15z"/>
<path d="M1885 426 c-26 -19 -29 -74 -4 -81 29 -10 58 4 65 30 10 42 -29 75
-61 51z"/>
<path d="M2050 410 c0 -18 5 -30 13 -30 8 0 14 12 14 30 0 18 -6 30 -14 30 -8
0 -13 -12 -13 -30z"/>
<path d="M2113 433 c-18 -7 -16 -23 2 -23 8 0 15 7 15 15 0 8 -1 15 -2 14 -2
0 -9 -3 -15 -6z"/>
<path d="M2146 433 c-10 -10 -7 -21 8 -26 8 -3 17 0 20 8 5 14 -17 28 -28 18z"/>
<path d="M1710 395 c0 -8 7 -15 15 -15 8 0 15 4 15 9 0 5 -7 11 -15 15 -9 3
-15 0 -15 -9z"/>
<path d="M1757 404 c-8 -8 3 -34 14 -34 11 0 12 27 0 34 -4 3 -11 3 -14 0z"/>
<path d="M1792 393 c2 -9 9 -18 16 -21 18 -6 15 25 -4 32 -11 4 -14 1 -12 -11z"/>
<path d="M2077 363 c-12 -11 -8 -23 8 -23 8 0 15 7 15 15 0 16 -12 20 -23 8z"/>
<path d="M1781 353 c0 -6 -3 -17 -6 -25 -3 -7 6 -18 21 -25 21 -10 29 -10 40
2 18 18 18 25 -1 25 -8 0 -15 -4 -15 -10 0 -5 -5 -10 -11 -10 -6 0 -8 7 -5 16
3 8 2 12 -3 9 -5 -3 -12 3 -14 12 -3 10 -5 13 -6 6z"/>
<path d="M1981 341 c-12 -8 -12 -12 2 -25 18 -18 37 -21 37 -6 0 6 -4 10 -9
10 -5 0 -11 7 -13 15 -2 10 -8 12 -17 6z"/>
<path d="M1950 296 c0 -9 7 -16 16 -16 17 0 14 22 -4 28 -7 2 -12 -3 -12 -12z"/>
<path d="M6770 630 c0 -5 7 -10 16 -10 8 0 12 5 9 10 -3 6 -10 10 -16 10 -5 0
-9 -4 -9 -10z"/>
<path d="M6613 616 c-13 -6 -23 -14 -23 -18 0 -13 13 -9 40 12 27 21 19 24
-17 6z"/>
<path d="M6803 606 c-6 -8 -9 -16 -6 -19 6 -7 43 15 43 25 0 13 -24 8 -37 -6z"/>
<path d="M6645 600 c-3 -5 -2 -10 4 -10 5 0 13 5 16 10 3 6 2 10 -4 10 -5 0
-13 -4 -16 -10z"/>
<path d="M6697 573 c-12 -12 -7 -60 8 -73 21 -17 54 -3 61 27 5 19 2 30 -11
40 -20 14 -47 17 -58 6z"/>
<path d="M6890 570 c0 -5 7 -10 15 -10 8 0 15 5 15 10 0 6 -7 10 -15 10 -8 0
-15 -4 -15 -10z"/>
<path d="M6535 539 c-10 -15 3 -25 16 -12 7 7 7 13 1 17 -6 3 -14 1 -17 -5z"/>
<path d="M6580 540 c0 -5 5 -10 10 -10 6 0 10 5 10 10 0 6 -4 10 -10 10 -5 0
-10 -4 -10 -10z"/>
<path d="M6615 540 c-3 -5 1 -10 9 -10 9 0 16 5 16 10 0 6 -4 10 -9 10 -6 0
-13 -4 -16 -10z"/>
<path d="M6870 530 c0 -5 7 -10 15 -10 8 0 15 5 15 10 0 6 -7 10 -15 10 -8 0
-15 -4 -15 -10z"/>
<path d="M6927 514 c-8 -8 3 -34 14 -34 5 0 9 9 9 20 0 19 -11 26 -23 14z"/>
<path d="M6967 514 c-8 -8 3 -34 14 -34 11 0 12 27 0 34 -4 3 -11 3 -14 0z"/>
<path d="M6630 496 c0 -9 7 -16 16 -16 9 0 14 5 12 12 -6 18 -28 21 -28 4z"/>
<path d="M6870 495 c0 -8 7 -15 15 -15 8 0 15 7 15 15 0 8 -7 15 -15 15 -8 0
-15 -7 -15 -15z"/>
<path d="M6820 466 c0 -9 7 -16 16 -16 17 0 14 22 -4 28 -7 2 -12 -3 -12 -12z"/>
<path d="M6627 425 c6 -17 25 -15 31 3 2 7 -5 12 -17 12 -14 0 -19 -5 -14 -15z"/>
<path d="M6872 410 c1 -16 6 -30 13 -30 6 0 12 14 12 30 0 18 -6 30 -13 30 -8
0 -12 -12 -12 -30z"/>
<path d="M6926 433 c-11 -11 -6 -23 9 -23 8 0 15 4 15 9 0 13 -16 22 -24 14z"/>
<path d="M6966 425 c-3 -9 0 -15 9 -15 16 0 20 16 6 24 -5 3 -11 -1 -15 -9z"/>
<path d="M6694 406 c-14 -56 18 -84 61 -52 16 12 18 19 10 43 -14 39 -61 46
-71 9z"/>
<path d="M6530 396 c0 -9 7 -16 16 -16 9 0 14 5 12 12 -6 18 -28 21 -28 4z"/>
<path d="M6576 385 c4 -8 10 -15 15 -15 5 0 9 7 9 15 0 8 -7 15 -15 15 -9 0
-12 -6 -9 -15z"/>
<path d="M6616 386 c3 -9 11 -16 16 -16 13 0 5 23 -10 28 -7 2 -10 -2 -6 -12z"/>
<path d="M6897 363 c-12 -11 -8 -23 8 -23 8 0 15 7 15 15 0 16 -12 20 -23 8z"/>
<path d="M6790 334 c0 -10 28 -34 39 -34 15 0 14 9 -3 26 -15 14 -36 19 -36 8z"/>
<path d="M6590 323 c0 -5 12 -13 26 -20 21 -10 29 -10 40 2 8 7 14 16 14 19 0
11 -28 6 -34 -6 -5 -10 -7 -10 -12 0 -6 13 -34 17 -34 5z"/>
<path d="M6776 303 c-11 -11 -6 -23 9 -23 8 0 15 4 15 9 0 13 -16 22 -24 14z"/>
<path d="M9060 620 c0 -5 5 -10 10 -10 6 0 10 5 10 10 0 6 -4 10 -10 10 -5 0
-10 -4 -10 -10z"/>
<path d="M8915 610 c-3 -5 -2 -10 4 -10 5 0 13 5 16 10 3 6 2 10 -4 10 -5 0
-13 -4 -16 -10z"/>
<path d="M9093 595 c-8 -9 -9 -16 -3 -20 6 -3 10 -1 10 4 0 6 7 11 15 11 8 0
15 5 15 10 0 15 -23 12 -37 -5z"/>
<path d="M8880 590 c0 -5 5 -10 10 -10 6 0 10 5 10 10 0 6 -4 10 -10 10 -5 0
-10 -4 -10 -10z"/>
<path d="M8986 554 c-21 -20 -20 -27 3 -55 16 -20 23 -22 38 -13 25 15 29 55
7 71 -23 17 -29 16 -48 -3z"/>
<path d="M9180 560 c0 -5 7 -10 15 -10 8 0 15 5 15 10 0 6 -7 10 -15 10 -8 0
-15 -4 -15 -10z"/>
<path d="M8820 526 c0 -9 5 -16 10 -16 6 0 10 4 10 9 0 6 -4 13 -10 16 -5 3
-10 -1 -10 -9z"/>
<path d="M8865 531 c-6 -11 9 -23 19 -14 9 9 7 23 -3 23 -6 0 -12 -4 -16 -9z"/>
<path d="M8905 530 c-3 -5 1 -10 10 -10 9 0 13 5 10 10 -3 6 -8 10 -10 10 -2
0 -7 -4 -10 -10z"/>
<path d="M9160 520 c0 -5 4 -10 9 -10 6 0 13 5 16 10 3 6 -1 10 -9 10 -9 0
-16 -4 -16 -10z"/>
<path d="M9210 497 c0 -8 7 -18 16 -21 11 -4 14 -1 12 11 -4 21 -28 30 -28 10z"/>
<path d="M9252 496 c1 -10 8 -17 13 -17 15 1 12 24 -3 29 -9 3 -13 -2 -10 -12z"/>
<path d="M8916 492 c-3 -6 -1 -14 5 -17 15 -10 25 3 12 16 -7 7 -13 7 -17 1z"/>
<path d="M9156 493 c-3 -3 -3 -10 0 -14 7 -12 34 -11 34 0 0 11 -26 22 -34 14z"/>
<path d="M9106 462 c-3 -6 -1 -14 5 -17 15 -10 25 3 12 16 -7 7 -13 7 -17 1z"/>
<path d="M8915 420 c-3 -5 1 -10 9 -10 9 0 16 5 16 10 0 6 -4 10 -9 10 -6 0
-13 -4 -16 -10z"/>
<path d="M9162 421 c4 -13 18 -16 19 -4 0 4 -5 9 -11 12 -7 2 -11 -2 -8 -8z"/>
<path d="M9210 414 c0 -17 22 -14 28 4 2 7 -3 12 -12 12 -9 0 -16 -7 -16 -16z"/>
<path d="M9250 415 c0 -9 5 -15 11 -13 6 2 11 8 11 13 0 5 -5 11 -11 13 -6 2
-11 -4 -11 -13z"/>
<path d="M8993 413 c-7 -2 -13 -20 -13 -39 0 -34 1 -35 33 -32 25 2 33 8 35
26 6 38 -21 59 -55 45z"/>
<path d="M8815 380 c3 -5 10 -10 16 -10 5 0 9 5 9 10 0 6 -7 10 -16 10 -8 0
-12 -4 -9 -10z"/>
<path d="M8867 384 c-8 -8 1 -24 14 -24 5 0 9 7 9 15 0 15 -12 20 -23 9z"/>
<path d="M8902 378 c2 -6 10 -14 16 -16 7 -2 10 2 6 12 -7 18 -28 22 -22 4z"/>
<path d="M9160 381 c0 -5 8 -11 18 -13 11 -3 19 0 19 8 0 8 -9 14 -19 14 -10
0 -18 -4 -18 -9z"/>
<path d="M9185 340 c4 -6 11 -8 16 -5 14 9 11 15 -7 15 -8 0 -12 -5 -9 -10z"/>
<path d="M9080 324 c0 -3 7 -12 16 -21 11 -12 18 -13 27 -4 8 8 7 11 -6 11 -9
0 -17 5 -17 10 0 6 -4 10 -10 10 -5 0 -10 -3 -10 -6z"/>
<path d="M8880 310 c0 -5 5 -10 10 -10 6 0 10 5 10 10 0 6 -4 10 -10 10 -5 0
-10 -4 -10 -10z"/>
<path d="M8935 310 c3 -5 -1 -10 -10 -10 -9 0 -13 -5 -10 -10 5 -8 11 -7 21 1
17 14 18 29 3 29 -5 0 -7 -4 -4 -10z"/>
<path d="M4240 620 c0 -5 7 -10 16 -10 8 0 12 5 9 10 -3 6 -10 10 -16 10 -5 0
-9 -4 -9 -10z"/>
<path d="M4090 614 c0 -10 31 -36 37 -31 3 3 -2 13 -10 22 -16 15 -27 19 -27
9z"/>
<path d="M4270 595 c-7 -9 -9 -19 -5 -23 4 -4 10 -1 12 6 3 6 11 12 19 12 9 0
12 5 9 10 -9 14 -21 12 -35 -5z"/>
<path d="M4060 590 c0 -5 5 -10 10 -10 6 0 10 5 10 10 0 6 -4 10 -10 10 -5 0
-10 -4 -10 -10z"/>
<path d="M4160 554 c-17 -20 -2 -67 23 -72 24 -5 47 16 47 42 0 42 -45 61 -70
30z"/>
<path d="M4360 560 c0 -5 5 -10 10 -10 6 0 10 5 10 10 0 6 -4 10 -10 10 -5 0
-10 -4 -10 -10z"/>
<path d="M4003 533 c-18 -7 -16 -23 2 -23 8 0 15 7 15 15 0 8 -1 15 -2 14 -2
0 -9 -3 -15 -6z"/>
<path d="M4045 531 c-3 -5 -1 -12 5 -16 5 -3 10 1 10 9 0 18 -6 21 -15 7z"/>
<path d="M4080 530 c0 -5 4 -10 9 -10 6 0 13 5 16 10 3 6 -1 10 -9 10 -9 0
-16 -4 -16 -10z"/>
<path d="M4338 518 c9 -9 15 -9 24 0 9 9 7 12 -12 12 -19 0 -21 -3 -12 -12z"/>
<path d="M4390 495 c0 -8 5 -15 10 -15 6 0 10 7 10 15 0 8 -4 15 -10 15 -5 0
-10 -7 -10 -15z"/>
<path d="M4432 496 c1 -10 8 -17 13 -17 15 1 12 24 -3 29 -9 3 -13 -2 -10 -12z"/>
<path d="M4097 493 c-12 -11 -8 -23 8 -23 8 0 15 7 15 15 0 16 -12 20 -23 8z"/>
<path d="M4340 485 c0 -9 5 -15 11 -13 6 2 11 8 11 13 0 5 -5 11 -11 13 -6 2
-11 -4 -11 -13z"/>
<path d="M4287 463 c-12 -11 -8 -23 8 -23 8 0 15 7 15 15 0 16 -12 20 -23 8z"/>
<path d="M4095 421 c-6 -11 9 -23 19 -14 9 9 7 23 -3 23 -6 0 -12 -4 -16 -9z"/>
<path d="M4335 421 c-3 -5 -1 -12 5 -16 12 -7 30 2 30 16 0 12 -27 12 -35 0z"/>
<path d="M4390 415 c0 -9 5 -15 11 -13 6 2 11 8 11 13 0 5 -5 11 -11 13 -6 2
-11 -4 -11 -13z"/>
<path d="M4430 415 c0 -8 7 -15 15 -15 8 0 15 7 15 15 0 8 -7 15 -15 15 -8 0
-15 -7 -15 -15z"/>
<path d="M4162 408 c-32 -32 1 -83 46 -71 17 4 22 13 22 38 0 42 -40 61 -68
33z"/>
<path d="M3996 375 c4 -8 10 -15 15 -15 5 0 9 7 9 15 0 8 -7 15 -15 15 -9 0
-12 -6 -9 -15z"/>
<path d="M4042 379 c2 -7 10 -15 17 -17 8 -3 12 1 9 9 -2 7 -10 15 -17 17 -8
3 -12 -1 -9 -9z"/>
<path d="M4080 375 c0 -8 5 -15 10 -15 6 0 10 7 10 15 0 8 -4 15 -10 15 -5 0
-10 -7 -10 -15z"/>
<path d="M4330 380 c0 -5 6 -10 14 -10 8 0 18 5 21 10 3 6 -3 10 -14 10 -12 0
-21 -4 -21 -10z"/>
<path d="M4366 353 c-11 -11 -6 -23 9 -23 8 0 15 4 15 9 0 13 -16 22 -24 14z"/>
<path d="M4257 323 c-8 -7 23 -32 41 -33 6 0 12 5 12 10 0 6 -7 10 -15 10 -8
0 -15 5 -15 10 0 11 -13 13 -23 3z"/>
<path d="M4055 310 c3 -5 13 -10 21 -10 8 0 14 -4 14 -10 0 -5 8 -10 18 -10
14 0 12 4 -8 20 -26 21 -56 27 -45 10z"/>
<path d="M4110 310 c0 -5 7 -10 15 -10 8 0 15 5 15 10 0 6 -7 10 -15 10 -8 0
-15 -4 -15 -10z"/>
<path d="M4230 280 c0 -5 7 -10 15 -10 8 0 15 5 15 10 0 6 -7 10 -15 10 -8 0
-15 -4 -15 -10z"/>
<path d="M944 3195 c13 -10 24 -11 37 -4 28 14 23 19 -18 19 -35 -1 -37 -2
-19 -15z"/>
<path d="M3460 3201 c0 -15 30 -21 51 -11 27 15 24 20 -16 20 -19 0 -35 -4
-35 -9z"/>
<path d="M9425 3200 c8 -13 35 -13 55 0 11 7 5 10 -23 10 -23 0 -36 -4 -32
-10z"/>
<path d="M9085 2850 c3 -5 8 -10 11 -10 2 0 4 5 4 10 0 6 -5 10 -11 10 -5 0
-7 -4 -4 -10z"/>
<path d="M8987 2823 c-21 -20 1 -73 30 -73 22 0 38 46 23 65 -13 15 -42 20
-53 8z"/>
<path d="M9185 2820 c3 -5 8 -10 11 -10 2 0 4 5 4 10 0 6 -5 10 -11 10 -5 0
-7 -4 -4 -10z"/>
<path d="M8820 2790 c0 -5 5 -10 10 -10 6 0 10 5 10 10 0 6 -4 10 -10 10 -5 0
-10 -4 -10 -10z"/>
<path d="M8870 2789 c0 -5 5 -7 10 -4 6 3 10 8 10 11 0 2 -4 4 -10 4 -5 0 -10
-5 -10 -11z"/>
<path d="M8910 2789 c0 -5 5 -7 10 -4 6 3 10 8 10 11 0 2 -4 4 -10 4 -5 0 -10
-5 -10 -11z"/>
<path d="M9160 2790 c0 -5 5 -10 10 -10 6 0 10 5 10 10 0 6 -4 10 -10 10 -5 0
-10 -4 -10 -10z"/>
<path d="M9215 2760 c-3 -5 -1 -10 4 -10 6 0 11 5 11 10 0 6 -2 10 -4 10 -3 0
-8 -4 -11 -10z"/>
<path d="M9250 2760 c0 -5 5 -10 10 -10 6 0 10 5 10 10 0 6 -4 10 -10 10 -5 0
-10 -4 -10 -10z"/>
<path d="M8920 2750 c0 -5 5 -10 10 -10 6 0 10 5 10 10 0 6 -4 10 -10 10 -5 0
-10 -4 -10 -10z"/>
<path d="M9160 2750 c0 -5 5 -10 10 -10 6 0 10 5 10 10 0 6 -4 10 -10 10 -5 0
-10 -4 -10 -10z"/>
<path d="M9110 2720 c0 -5 5 -10 11 -10 5 0 7 5 4 10 -3 6 -8 10 -11 10 -2 0
-4 -4 -4 -10z"/>
<path d="M9160 2680 c0 -5 5 -10 10 -10 6 0 10 5 10 10 0 6 -4 10 -10 10 -5 0
-10 -4 -10 -10z"/>
<path d="M9210 2681 c0 -6 5 -13 10 -16 6 -3 10 1 10 9 0 9 -4 16 -10 16 -5 0
-10 -4 -10 -9z"/>
<path d="M9255 2680 c-3 -5 -1 -10 4 -10 6 0 11 5 11 10 0 6 -2 10 -4 10 -3 0
-8 -4 -11 -10z"/>
<path d="M8987 2674 c-4 -4 -7 -20 -7 -36 0 -27 3 -29 33 -26 28 3 32 6 32 33
0 25 -5 31 -25 33 -14 2 -29 0 -33 -4z"/>
<path d="M9165 2650 c-3 -5 -1 -10 4 -10 6 0 11 5 11 10 0 6 -2 10 -4 10 -3 0
-8 -4 -11 -10z"/>
<path d="M8870 2639 c0 -5 5 -7 10 -4 6 3 10 8 10 11 0 2 -4 4 -10 4 -5 0 -10
-5 -10 -11z"/>
<path d="M8905 2640 c3 -5 8 -10 11 -10 2 0 4 5 4 10 0 6 -5 10 -11 10 -5 0
-7 -4 -4 -10z"/>
<path d="M9180 2610 c0 -5 5 -10 10 -10 6 0 10 5 10 10 0 6 -4 10 -10 10 -5 0
-10 -4 -10 -10z"/>
<path d="M8880 2580 c0 -5 5 -10 11 -10 5 0 7 5 4 10 -3 6 -8 10 -11 10 -2 0
-4 -4 -4 -10z"/>
<path d="M9110 2570 c0 -5 5 -10 11 -10 5 0 7 5 4 10 -3 6 -8 10 -11 10 -2 0
-4 -4 -4 -10z"/>
<path d="M10 1025 c0 -22 4 -25 35 -25 40 0 45 12 13 34 -32 23 -48 20 -48 -9z"/>
<path d="M10 935 c0 -40 7 -43 44 -14 37 29 34 49 -9 49 -33 0 -35 -2 -35 -35z"/>
</g>
</svg>
