<?xml version="1.0" encoding="utf-8"?>
<!-- Generator: Adobe Illustrator 16.0.0, SVG Export Plug-In . SVG Version: 6.00 Build 0)  -->
<!DOCTYPE svg PUBLIC "-//W3C//DTD SVG 1.1//EN" "http://www.w3.org/Graphics/SVG/1.1/DTD/svg11.dtd">
<svg version="1.1" id="Layer_1" xmlns="http://www.w3.org/2000/svg" xmlns:xlink="http://www.w3.org/1999/xlink" x="0px" y="0px"
	 width="865px" height="175px" viewBox="0 0 865 175" enable-background="new 0 0 865 175" xml:space="preserve">
<g>
	<path d="M585.676,115.318c0,0.859,0,1.723,0,1.723c0,14.672,0,29.342,0,44.878c0,0.863,0,1.725,0,1.725
		c0,4.314-1.727,6.042-6.037,6.042c-10.359,0-19.852,0-30.205,0c-0.863,0-0.863,0-1.729,0c-4.313,0-6.037-1.728-6.037-6.042
		c0-7.766,0-16.396,0-24.163c0-10.355,0-20.711,0-31.065c0-31.932,0-62.999-0.865-94.066c0-1.726,0-2.588,0-4.313
		c0-2.591,1.727-5.178,4.316-5.178c11.217,0,23.301,0,34.52,0c2.586,0,5.174,2.587,5.174,6.04c0,10.355,0,22.438,0,32.792
		c0,4.316,0,8.631,0.863,12.945c0.865-0.861,1.727-1.726,1.727-1.726c6.906-19.848,18.984-36.244,37.971-45.737
		c10.355-6.04,21.574-8.629,33.658-8.629c6.902,0,14.67,0.862,21.572,1.726c12.082,1.726,23.301,6.903,32.793,17.259
		c4.314,4.315,8.631,8.631,11.219,14.672c0.863,0.861,1.727,1.726,1.727,2.587c0-1.726,0.859-1.726,0.859-3.451
		c0-7.768,0-14.67-0.859-23.299c0-2.591,1.725-5.178,5.176-5.178c12.084,0,24.166,0,37.109,0c28.475,0,57.816,0,86.299-0.864
		c2.588,0,5.174,1.726,5.174,4.316c0,9.492,0,18.983,0,27.615c0,1.726-1.723,5.177-2.586,6.04
		c-8.633,10.356-17.26,18.985-25.891,29.34c-11.219,12.945-23.301,25.891-34.521,38.834c-5.174,6.039-10.354,12.084-15.529,18.123
		c-0.863,0.863-0.863,1.729-0.863,1.729c0.863,0.859,1.723,0.859,1.723,0.859c8.633,0,18.123,0,26.754,0c16.398,0,32.793,0,49.191,0
		c3.451,0,5.174,1.728,5.174,5.179c0,8.632,0,16.398,0.865,25.025c0,4.314-1.723,6.044-6.039,6.044c-33.658,0-68.178,0-101.832,0
		c-9.494,0-18.125,0-27.613,0.86c-4.316,0-6.904-1.726-6.043-6.039c0.861-3.453,0-6.904,0-10.356c0-0.864-0.861-1.728-1.725-1.728
		c0,0-1.73,0.863-1.73,1.728c-5.172,6.903-12.078,12.081-19.846,15.535c-9.49,4.312-18.984,6.038-29.338,6.038
		c-10.357,0-19.85,0-30.207-2.588c-14.67-3.45-27.611-10.355-36.244-23.301c-6.902-9.49-12.082-18.985-14.67-31.929
		c0-0.862-0.863-0.862-0.863-1.727C586.541,115.318,585.676,115.318,585.676,115.318z M668.52,98.922L668.52,98.922
		c-12.078,0-24.16,0-36.244,0c-4.316,0-6.039,1.727-5.174,6.04c0.857,3.453,1.723,6.04,2.588,10.356
		c1.727,6.041,6.039,10.354,10.354,14.672c5.18,4.313,11.221,6.902,18.123,7.767c6.041,0.858,12.084,0.858,18.986-1.729
		c6.037-2.589,10.354-6.903,12.945-12.945c0.859-1.724,1.725-2.589,4.313-2.589c12.08,0,24.164,0,36.244,0
		c2.592,0,5.18-0.861,6.908-2.588c6.902-7.768,14.67-15.535,21.572-23.303c6.039-6.038,11.219-13.806,17.26-19.846
		c8.629-10.356,18.121-19.849,26.752-31.068c0.859-0.862,0.859-1.725,1.723-2.588c-0.863,0-1.723-0.863-2.588-0.863
		c-12.945,0-25.887,0-37.971,0c-10.355,0-18.982,0-29.342,0c-2.588,0-3.451,1.726-2.588,4.314
		c1.725,6.042,3.453,12.082,5.178,18.987c2.59,10.355,3.455,20.71,3.455,31.929c0,3.453-1.729,4.315-4.316,4.315
		c-9.496,0-18.986,0.864-28.477,0.864C692.686,99.784,680.604,98.922,668.52,98.922z M665.934,71.305L665.934,71.305
		c7.768-0.862,14.67-0.862,23.301-0.862c1.723,0,3.451-0.863,2.588-2.589c-0.865-2.588-0.865-6.041-1.725-8.629
		c-1.727-6.042-4.314-10.356-9.494-14.671c-6.902-6.04-15.533-7.767-25.027-6.902c-6.037,0.862-12.08,3.451-16.396,8.629
		c-6.039,6.041-9.49,13.806-10.355,21.574c0,1.726,0.865,3.451,2.592,3.451c0.859,0,1.725,0,2.588,0
		C645.223,71.305,655.576,71.305,665.934,71.305z"/>
	<path d="M244.804,61.813c0-12.945,0-26.753,0-39.697c0-2.589-0.862-6.041-0.862-9.493c0-4.314,1.726-6.04,6.041-6.04
		c10.356,0,22.437,0,32.792,0c2.59,0,5.178,1.726,5.178,5.177c0,2.588,0,6.041,0,9.492c0,43.148,0.863,86.298,0.863,129.445
		c0,5.18,0,10.355,0,14.67c0,4.317-1.726,6.041-6.042,6.041c-10.355,0-20.71,0-31.066,0c-4.315,0-5.177-1.724-5.177-6.041
		c0-4.314,0-9.49,0-13.806c0-0.864-0.863-1.728-0.863-1.728c-0.863,0.863-1.726,1.728-1.726,1.728
		c-5.178,7.768-12.082,14.67-22.438,18.123c-14.669,6.04-28.478,6.04-43.149,1.724c-11.218-2.588-21.573-9.49-27.615-18.982
		c-1.726-1.729-2.587-5.18-4.314-6.904c0-0.862-0.863-0.862-1.726-1.728c0,0.865-0.864,1.728-0.864,1.728c0,6.04,0,12.078,0,18.121
		c0,4.314-1.725,6.042-6.041,6.042c-5.177,0-10.355,0-14.67,0c-38.835,0-77.667,0.862-116.5,0.862c-4.315,0-6.042-1.727-6.042-5.18
		c0-7.768,0-15.533,0-23.301c0-3.452,1.726-6.039,3.451-9.49c9.493-10.354,18.987-20.71,27.615-31.929
		c14.671-17.261,30.206-34.521,44.875-51.78c1.726-1.726,2.588-2.588,3.452-5.179c0.861-0.862,0.861-1.725,0.861-1.725
		c-0.861-0.863-1.726-0.863-1.726-0.863c-6.041,0-11.218,0-16.396,0c-9.493,0-18.986,0-27.615,0c-6.903,0-14.67,0-22.438,0.863
		c-4.313,0-6.039-1.726-6.039-6.04c0-7.767,0-15.535,0-23.301c0-3.453,1.726-6.04,6.039-6.04c6.905,0,14.671,0,20.711,0
		c34.52,0,68.176,0,102.694-0.864c12.944,0,25.89,0,38.833,0c5.178,0,6.042,1.725,6.042,6.041c0,18.122,0,36.245,0,54.366
		c0,14.67,0,27.614,0.862,42.288c0,6.903,1.726,14.668,6.904,19.847c4.314,5.178,10.356,7.767,16.396,7.767
		c6.903,0.864,13.807,0,19.849-2.589c6.041-2.59,10.354-7.768,12.944-13.807c2.589-6.041,4.315-13.809,4.315-20.711
		C244.804,87.701,244.804,74.757,244.804,61.813z M139.522,47.142L139.522,47.142c-1.726,0.863-1.726,0.863-2.587,1.726
		c-6.042,6.04-11.22,12.945-17.261,19.849c-11.219,12.945-23.299,25.887-35.383,39.698c-6.902,7.763-14.67,16.395-21.573,24.162
		c-0.861,0.862-0.861,1.726-1.726,2.588c0.865,0,1.726,0.863,2.59,0.863c6.039,0,12.944-0.863,18.984-0.863
		c17.26,0,35.382,0,52.642,0c4.314,0,6.039-0.862,5.178-6.04c0-0.863,0-1.728,0-1.728c-0.864-4.314-1.726-9.491-1.726-13.806
		c0-18.988,0-37.109,0-56.094C139.522,54.047,139.522,50.594,139.522,47.142z"/>
	<path d="M338.867,29.883c0.863-1.725,1.728-1.725,1.728-2.59c6.903-11.217,17.259-18.983,30.204-22.435
		c13.807-3.454,25.888-1.727,37.97,5.178c6.904,4.313,12.944,8.629,18.986,14.67c2.588,2.587,3.452,2.587,6.04,0
		c6.039-7.767,13.807-14.67,23.299-18.986c3.453-1.726,6.904-1.726,10.355-2.588c12.082-1.728,24.164,0,36.244,6.04
		c12.947,6.042,20.715,18.122,25.029,31.931c1.725,6.904,2.588,14.671,2.588,22.438c0,22.436,0,44.011,0,66.451
		c0,12.077,0.863,23.298,0.863,36.242c0,4.315-1.727,6.038-6.043,6.038c-10.354,0-21.572,0-31.928,0c-3.453,0-5.18-1.723-5.18-5.173
		c0-5.179,0-10.36,0-14.671c0-18.987,0-37.971-0.861-57.823c0-7.765,0-16.395-0.863-24.161c-0.861-10.355-3.451-18.986-12.082-25.89
		c-10.355-6.902-25.025-5.177-31.928,6.042c-4.316,6.904-6.043,14.671-6.043,23.301c0,31.067,0,62.133,0,92.337
		c0,3.453-1.725,6.038-6.04,6.038c-11.22,0-22.438,0-33.656,0c-2.59,0-5.179-2.585-5.179-6.038c0-2.589,0-6.04,0-8.632
		c0-28.476,0-56.952,0-85.433c0-7.767-1.725-15.534-6.041-22.437c-5.178-6.903-17.259-10.355-25.026-7.767
		c-10.356,2.588-14.67,10.356-18.122,18.985c-1.727,6.904-1.727,14.671-1.727,22.438c0,27.614,0,56.093,0.864,83.71
		c0,4.312-1.726,6.038-6.042,6.038c-10.355,0-21.574,0-31.93,0c-2.588,0-5.177-1.727-5.177-4.314c0-2.589,0-6.039,0-8.629
		c0-25.89,0-50.919,0-76.805c0-22.438,0-44.875-0.863-67.312c0-6.04,1.725-6.905,6.903-6.905c9.493,0,18.986,0,27.615,0
		c3.451,0,6.042,1.727,6.042,6.042C338.005,19.527,338.005,25.567,338.867,29.883C338.005,28.158,338.867,29.019,338.867,29.883z"/>
</g>
</svg>
